<?xml version="1.0" standalone="no"?><!DOCTYPE svg PUBLIC "-//W3C//DTD SVG 1.1//EN" "http://www.w3.org/Graphics/SVG/1.1/DTD/svg11.dtd"><svg t="1634738802081" class="icon" viewBox="0 0 1024 1024" version="1.1" xmlns="http://www.w3.org/2000/svg" p-id="15348" xmlns:xlink="http://www.w3.org/1999/xlink" width="200" height="200"><defs><style type="text/css"></style></defs><path d="M564 590.1m-343.4 0a343.4 343.4 0 1 0 686.8 0 343.4 343.4 0 1 0-686.8 0Z" fill="#C5E5FF" p-id="15349"></path><path d="M512 960C265 960 64 759 64 512S265 64 512 64c116.1 0 226.2 44.2 310 124.6 3.8 3.6 3.9 9.7 0.3 13.5-3.7 3.8-9.7 3.9-13.5 0.3-80.2-77-185.6-119.3-296.8-119.3C275.5 83.1 83.1 275.5 83.1 512S275.5 940.9 512 940.9 940.9 748.5 940.9 512c0-62.9-13.3-123.6-39.6-180.3-2.2-4.8-0.1-10.4 4.6-12.7 4.8-2.2 10.5-0.1 12.7 4.6C946.1 382.9 960 446.3 960 512c0 247-201 448-448 448z" fill="#3B94FF" p-id="15350"></path><path d="M512 821.2c-27.1 0-49-21.9-49-49s21.9-49 49-49 48.9 21.8 48.9 49c0.1 27.1-21.8 49-48.9 49z m9.6-152.2h-26.2l-29.7-375.9c-1.8-31.5 15.7-68.2 43.7-68.2 29.7 0 48.1 35.8 45.5 68.2L521.6 669z" fill="#3B94FF" p-id="15351"></path></svg>