<?xml version="1.0" standalone="no"?><!DOCTYPE svg PUBLIC "-//W3C//DTD SVG 1.1//EN" "http://www.w3.org/Graphics/SVG/1.1/DTD/svg11.dtd"><svg t="1636912771803" class="icon" viewBox="0 0 1024 1024" version="1.1" xmlns="http://www.w3.org/2000/svg" p-id="5530" xmlns:xlink="http://www.w3.org/1999/xlink" width="200" height="200"><defs><style type="text/css"></style></defs><path d="M164.096 829.312a32.512 32.512 0 0 1-33.152-16.576c-9.344-19.072 3.648-37.952 36.352-73.408 51.584-55.872 53.888-144.96 53.888-145.92V413.568a289.024 289.024 0 0 1 507.392-189.76 22.784 22.784 0 1 1-34.304 30.016A243.584 243.584 0 0 0 266.624 412.8v180.224c0 4.736-2.56 108.16-65.92 176.576l-10.88 12.032c37.696-1.6 273.792 0 283.776 0a22.72 22.72 0 1 1 0 45.44c-2.496 0-244.928-1.6-281.536 0h-13.44l-14.528 2.24zM330.944 614.4a18.176 18.176 0 0 1-18.176-17.728c-6.144-236.8 32.256-280.896 44.032-288.832a18.176 18.176 0 0 1 21.12 29.056c-2.496 2.944-34.752 45.44-29.248 258.816a18.176 18.176 0 0 1-17.728 18.688z m236.8-441.344a18.176 18.176 0 0 1-18.24-18.176 55.232 55.232 0 1 0-110.208 0 18.176 18.176 0 0 1-36.352 0 90.88 90.88 0 1 1 181.76 0c0 9.6-7.424 17.6-17.024 18.176zM494.464 960c-44.608 0-80.96-35.84-81.6-80.448v-18.176h36.352v18.176a45.44 45.44 0 0 0 90.88 0v-18.176h36.16v18.176c-0.512 44.8-37.056 80.64-81.792 80.448z m260.864-135.232h-115.84l-1.408-16.768c-1.152-15.488-8.896-49.792-25.92-56.832-12.032-4.992-32.256 3.648-56.768 24.512l-12.992 10.88-87.488-88.768 13.632-12.8c14.528-13.376 33.216-39.04 29.12-50.368-2.752-6.848-18.176-14.784-53.888-16.384h-17.472V486.4l21.12 3.456c17.92 2.944 47.04 1.792 52.928-7.936 1.408-2.304 7.04-16.384-24.064-59.136l-8.896-12.224 85.696-89.344 13.184 14.08c18.88 20.224 44.288 36.864 52.032 33.408 0 0 11.584-6.784 6.848-60.416l-1.856-19.52h143.168l-1.792 19.712c-3.456 37.312 3.2 50.944 7.68 53.184 8 4.096 32.512-8.64 48-22.72l12.928-11.52 89.28 90.88-9.728 12.48c-13.44 17.024-24.768 42.24-20.224 50.624 2.24 3.84 14.528 9.6 47.04 5.76l20.224-2.56V624h-17.92c-22.784 0-49.152 7.232-52.992 16.768-2.304 5.504 2.688 19.584 24.064 41.152l12.48 12.48-86.784 90.88-13.184-11.52c-17.472-15.488-48.192-33.408-60.416-27.328-7.04 3.456-13.44 20.224-11.136 57.28l1.344 21.12z m-82.048-36.096h45.44c0-38.656 10.88-62.528 32.064-72.96 29.568-14.336 66.112 6.848 86.592 22.72l39.552-41.6c-13.888-16.32-30.464-42.24-20.032-68.16 10.496-25.92 45.44-35.456 68.16-38.4V525.76a66.368 66.368 0 0 1-62.72-25.664c-14.272-25.728 2.048-58.88 14.08-77.76l-44.032-45.44c-18.176 12.992-49.28 29.76-75.008 16.832-25.664-12.928-28.8-45.44-28.416-68.16h-66.368c0 31.104-3.392 65.408-29.504 76.992-26.112 11.584-60.672-11.52-79.744-28.352l-39.104 39.68c24.32 37.312 30.016 65.92 16.832 87.04a76.16 76.16 0 0 1-68.224 26.624V582.4c38.4 4.288 61.184 17.024 68.224 38.848 10.24 28.16-10.24 58.624-25.472 76.16l38.848 39.936c30.912-22.72 58.24-29.056 81.344-19.52 30.72 12.736 42.048 48.192 47.488 70.912z m19.84-107.008a117.952 117.952 0 1 1 0-235.904 117.952 117.952 0 0 1 0 235.904z m0-201.6a83.84 83.84 0 1 0 0 167.68 83.84 83.84 0 0 0 0-167.68z" p-id="5531"></path></svg>