<?xml version="1.0" standalone="no"?><!DOCTYPE svg PUBLIC "-//W3C//DTD SVG 1.1//EN" "http://www.w3.org/Graphics/SVG/1.1/DTD/svg11.dtd"><svg t="1634737090236" class="icon" viewBox="0 0 1025 1024" version="1.1" xmlns="http://www.w3.org/2000/svg" p-id="7791" xmlns:xlink="http://www.w3.org/1999/xlink" width="200.1953125" height="200"><defs><style type="text/css"></style></defs><path d="M347.52 993.92a40.32 40.32 0 0 1-16.64 0A512 512 0 1 1 986.24 320a48 48 0 1 1-90.24 35.2 416 416 0 1 0-531.2 545.92 48 48 0 0 1-17.28 92.8z" p-id="7792" fill="#1296db"></path><path d="M416 576m0-48l0-224q0-48 48-48l0 0q48 0 48 48l0 224q0 48-48 48l0 0q-48 0-48-48Z" p-id="7793" fill="#1296db"></path><path d="M256 480m48 0l160 0q48 0 48 48l0 0q0 48-48 48l-160 0q-48 0-48-48l0 0q0-48 48-48Z" p-id="7794" fill="#1296db"></path><path d="M551.68 707.84v-57.6h48V565.76h64v84.48h36.48v57.6h-36.48v70.4l16-4.48 17.92-5.76v64c-11.52 3.84-23.04 7.68-33.92 10.24v128c0 32-14.08 49.92-41.6 53.76h-58.24a552.32 552.32 0 0 0-10.24-58.24h36.48c7.68 0 11.52-5.76 11.52-17.92v-87.68c-16 3.84-30.08 7.68-43.52 12.16l-6.4-70.4h10.24l39.68-7.68v-86.4z m166.4-135.68h64V704H832v64h-51.84v160a507.52 507.52 0 0 0 51.84-23.68 485.76 485.76 0 0 0 3.84 67.84 667.52 667.52 0 0 0-107.52 46.08l-36.48-49.92a69.76 69.76 0 0 0 24.32-56.32z m263.68 76.16L1024 704c-35.84 35.84-73.6 71.04-112 106.24v128a17.28 17.28 0 0 0 16 19.84h10.24c8.96 0 15.36-12.8 17.92-33.92s4.48-47.36 5.76-81.92l24.32 7.68 35.84 12.16a648.96 648.96 0 0 1-8.32 87.68 64 64 0 0 1-71.68 64h-30.08a58.24 58.24 0 0 1-64-64V568.32h64v155.52a286.72 286.72 0 0 0 19.84-21.76z" p-id="7795" fill="#1296db"></path></svg>