<?xml version="1.0" standalone="no"?><!DOCTYPE svg PUBLIC "-//W3C//DTD SVG 1.1//EN" "http://www.w3.org/Graphics/SVG/1.1/DTD/svg11.dtd"><svg t="1634489856283" class="icon" viewBox="0 0 1024 1024" version="1.1" xmlns="http://www.w3.org/2000/svg" p-id="43940" xmlns:xlink="http://www.w3.org/1999/xlink" width="200" height="200"><defs><style type="text/css"></style></defs><path d="M500.4 75.1h20v697.3h-20z" p-id="43941"></path><path d="M503.4 551.4l-71.2-70.5v-407h20v398.7l65.3 64.6z" p-id="43942"></path><path d="M434.035 180.374l14.196-14.088 68.256 68.78-14.196 14.088zM434.042 281.671l14.196-14.088 68.257 68.78-14.196 14.088zM435.1 384.98l14.196-14.088 68.256 68.78-14.196 14.087zM518.9 551.4l-14-14.2 65.3-64.6V73.9h20v407z" p-id="43943"></path><path d="M505.848 235.171l68.257-68.78L588.3 180.48l-68.257 68.78zM505.852 336.47l68.256-68.78 14.196 14.089-68.256 68.78zM504.81 439.672l68.256-68.78 14.196 14.088-68.256 68.78zM300.8 145.3h20v609.1h-20z" p-id="43944"></path><path d="M303.8 630.4l-71.2-70.5V144.1h20v407.5l65.3 64.6z" p-id="43945"></path><path d="M234.436 250.578l14.196-14.088 68.256 68.78-14.196 14.088zM234.062 377.96l15.018-13.209 68.22 77.568-15.018 13.208zM235.515 490.48l14.196-14.088 68.256 68.78-14.196 14.088z" p-id="43946"></path><path d="M319.3 630.4l-14-14.2 65.3-64.6V144.1h20v415.8z" p-id="43947"></path><path d="M306.24 305.37l68.255-68.78 14.196 14.089-68.256 68.78zM305.87 442.37l68.219-77.568 15.018 13.208-68.22 77.568zM305.21 545.142l68.255-68.78 14.196 14.089-68.256 68.78zM700.7 146h20v547.3h-20z" p-id="43948"></path><path d="M703.6 622.2l-71.2-70.5v-407h20v398.7l65.3 64.6z" p-id="43949"></path><path d="M634.281 251.269l14.196-14.088 68.257 68.78-14.196 14.087zM634.23 387.781l14.196-14.088 68.257 68.78-14.196 14.088zM635.29 491.099l14.195-14.088 68.257 68.78-14.196 14.087z" p-id="43950"></path><path d="M719.2 622.2L705.1 608l65.3-64.6V144.7h20v407z" p-id="43951"></path><path d="M706.112 305.96l68.256-68.78 14.196 14.088-68.256 68.78zM706.128 442.571l68.256-68.78 14.196 14.088-68.256 68.78zM705.005 545.808l68.256-68.78 14.196 14.089-68.256 68.78zM347.5 929.4l-15.7-12.3c145.9-185.9 428-279 631.4-275l-0.4 20c-100.9-2-220 21.2-326.7 63.7-122.6 48.9-222.4 119.3-288.6 203.6z" p-id="43952"></path><path d="M422.1 837.1c-44.2-38.5-103.2-73.9-170.5-102.2-61.8-26-127.5-45.1-190.1-55.3l3.2-19.7c64.1 10.4 131.5 30 194.7 56.6 69.3 29.2 130.1 65.7 175.9 105.6l-13.2 15zM367.9 891.4c-82.2-62.3-171-102.1-271.5-121.6l3.8-19.6c103.5 20.1 195 61.1 279.7 125.3l-12 15.9zM288.5 930.5c-42.1-30.7-115.3-61.1-161.8-72.8l4.9-19.4c47.6 12 122.9 42.7 168.7 76l-11.8 16.2zM456.5 930.7l-13.2-15c132-116.4 313-189.3 484-195l0.7 20c-166.6 5.6-342.9 76.6-471.5 190zM610.6 931.4l-10.5-17c105.5-65.3 172.6-95.9 291.5-104.2l1.4 20c-114.7 8-179.8 37.7-282.4 101.2z" p-id="43953"></path></svg>