<?xml version="1.0" standalone="no"?><!DOCTYPE svg PUBLIC "-//W3C//DTD SVG 1.1//EN" "http://www.w3.org/Graphics/SVG/1.1/DTD/svg11.dtd"><svg t="1634487318632" class="icon" viewBox="0 0 1024 1024" version="1.1" xmlns="http://www.w3.org/2000/svg" p-id="27619" xmlns:xlink="http://www.w3.org/1999/xlink" width="200" height="200"><defs><style type="text/css"></style></defs><path d="M597.312 853.312v85.376h85.376c47.104 0 85.312 38.208 85.312 85.312H256c0-47.104 38.208-85.312 85.312-85.312h85.376v-85.376H128a128 128 0 0 1-128-128V128a128 128 0 0 1 128-128h768a128 128 0 0 1 128 128v597.312a128 128 0 0 1-128 128H597.312z m-448-768a64 64 0 0 0-64 64v469.376a64 64 0 0 0 64 64h725.376a64 64 0 0 0 64-64V149.312a64 64 0 0 0-64-64H149.312zM512 810.688a42.688 42.688 0 1 0 0-85.376 42.688 42.688 0 0 0 0 85.376zM384 341.312h85.312v256H384v-256zM213.312 426.688h85.376v170.624H213.312V426.688zM554.688 256H640v341.312H554.688V256z m170.624-85.312h85.376v426.624h-85.376V170.688z" p-id="27620"></path></svg>