<?xml version="1.0" standalone="no"?><!DOCTYPE svg PUBLIC "-//W3C//DTD SVG 1.1//EN" "http://www.w3.org/Graphics/SVG/1.1/DTD/svg11.dtd"><svg t="1634739794602" class="icon" viewBox="0 0 1024 1024" version="1.1" xmlns="http://www.w3.org/2000/svg" p-id="9661" xmlns:xlink="http://www.w3.org/1999/xlink" width="200" height="200"><defs><style type="text/css"></style></defs><path d="M795.927273 232.727273h-228.072728c-39.563636 0-69.818182 30.254545-69.818181 69.818182v228.072727c0 39.563636 30.254545 69.818182 69.818181 69.818182h93.09091c6.981818 0 13.963636-6.981818 13.963636-13.963637s-6.981818-13.963636-13.963636-13.963636h-93.09091c-23.272727 0-44.218182-18.618182-44.218181-44.218182V302.545455c0-23.272727 18.618182-44.218182 44.218181-44.218182h228.072728c23.272727 0 44.218182 18.618182 44.218182 44.218182v167.563636c-4.654545-4.654545-9.309091-4.654545-13.963637-4.654546h-27.927273c-34.909091 0-60.509091 27.927273-60.50909 60.509091v39.563637c0 18.618182 16.290909 32.581818 32.581818 32.581818h25.6c39.563636 0 69.818182-30.254545 69.818182-69.818182V302.545455c2.327273-37.236364-30.254545-69.818182-69.818182-69.818182z m44.218182 295.563636c0 23.272727-18.618182 44.218182-44.218182 44.218182h-25.6c-4.654545 0-6.981818-2.327273-6.981818-6.981818v-39.563637c0-18.618182 16.290909-34.909091 34.90909-34.909091h27.927273c6.981818 0 13.963636 6.981818 13.963637 13.963637v23.272727z" p-id="9662" fill="#1296db"></path><path d="M574.836364 337.454545h225.745454c6.981818 0 13.963636-6.981818 13.963637-13.963636s-6.981818-13.963636-13.963637-13.963636h-225.745454c-6.981818 0-13.963636 6.981818-13.963637 13.963636 0 9.309091 6.981818 13.963636 13.963637 13.963636z m0 86.109091h225.745454c6.981818 0 13.963636-6.981818 13.963637-13.963636s-6.981818-13.963636-13.963637-13.963636h-225.745454c-6.981818 0-13.963636 6.981818-13.963637 13.963636s6.981818 13.963636 13.963637 13.963636z m134.981818 58.181819h-134.981818c-6.981818 0-13.963636 6.981818-13.963637 13.963636s6.981818 13.963636 13.963637 13.963636h134.981818c6.981818 0 13.963636-6.981818 13.963636-13.963636-2.327273-6.981818-6.981818-13.963636-13.963636-13.963636z m-337.454546-93.09091c20.945455-34.909091 20.945455-79.127273 0-111.70909-23.272727-37.236364-67.490909-55.854545-109.381818-46.545455-4.654545 0-9.309091 4.654545-11.636363 9.309091-4.654545 2.327273-4.654545 9.309091 0 13.963636l34.90909 53.527273-30.254545 16.290909-34.909091-55.854545c-2.327273-4.654545-6.981818-6.981818-13.963636-6.981819-4.654545 0-9.309091 2.327273-13.963637 4.654546C165.236364 302.545455 162.909091 351.418182 186.181818 388.654545c20.945455 34.909091 62.836364 53.527273 102.4 48.872728l109.381818 181.527272c4.654545 9.309091 13.963636 13.963636 20.945455 16.29091h9.309091c6.981818 0 13.963636-2.327273 18.618182-4.654546l27.927272-16.290909c9.309091-4.654545 13.963636-13.963636 16.290909-20.945455 2.327273-9.309091 0-18.618182-4.654545-25.6 4.654545-2.327273-114.036364-179.2-114.036364-179.2z m90.763637 200.145455l-27.927273 16.290909h-2.327273s-2.327273 0-2.327272-2.327273l-118.69091-188.509091c-2.327273-4.654545-9.309091-6.981818-13.963636-6.981818h-2.327273c-32.581818 6.981818-65.163636-9.309091-79.127272-34.909091-16.290909-20.945455-16.290909-46.545455-9.309091-67.490909l30.254545 46.545455c4.654545 6.981818 13.963636 9.309091 20.945455 4.654545l55.854545-34.909091c6.981818-4.654545 9.309091-16.290909 4.654546-20.945454l-27.927273-46.545455c20.945455 2.327273 44.218182 16.290909 53.527273 34.909091 16.290909 25.6 16.290909 62.836364-4.654546 86.109091-4.654545 4.654545-4.654545 13.963636 0 16.290909l121.018182 186.181818v11.636364h2.327273z" p-id="9663" fill="#1296db"></path><path d="M847.127273 88.436364H176.872727C116.363636 88.436364 69.818182 137.309091 69.818182 195.490909v477.090909c0 58.181818 46.545455 107.054545 107.054545 107.054546h672.581818c58.181818 0 107.054545-46.545455 107.054546-107.054546V195.490909c0-58.181818-48.872727-107.054545-109.381818-107.054545z m48.872727 584.145454c0 25.6-20.945455 46.545455-46.545455 46.545455H179.2c-25.6 0-46.545455-20.945455-46.545455-46.545455V195.490909c0-25.6 20.945455-46.545455 46.545455-46.545454h672.581818c25.6 0 46.545455 20.945455 46.545455 46.545454v477.090909z m-76.8 202.472727H651.636364v-16.290909c0-16.290909-11.636364-25.6-25.6-25.6H381.672727c-16.290909 0-25.6 11.636364-25.6 25.6v16.290909H188.509091c-16.290909 0-30.254545 13.963636-30.254546 30.254546 0 16.290909 13.963636 30.254545 30.254546 30.254545h630.690909c16.290909 0 30.254545-13.963636 30.254545-30.254545 0-18.618182-11.636364-30.254545-30.254545-30.254546z" p-id="9664" fill="#1296db"></path></svg>