<?xml version="1.0" standalone="no"?><!DOCTYPE svg PUBLIC "-//W3C//DTD SVG 1.1//EN" "http://www.w3.org/Graphics/SVG/1.1/DTD/svg11.dtd"><svg t="1634486913958" class="icon" viewBox="0 0 1024 1024" version="1.1" xmlns="http://www.w3.org/2000/svg" p-id="1211" xmlns:xlink="http://www.w3.org/1999/xlink" width="200" height="200"><defs><style type="text/css"></style></defs><path d="M512 0A512 512 0 1 0 1024 512 512 512 0 0 0 512 0z m0 969.386667A457.386667 457.386667 0 1 1 969.386667 512 457.9328 457.9328 0 0 1 512 969.386667z" p-id="1212"></path><path d="M823.432533 344.4736C729.224533 289.1776 587.093333 204.8 398.5408 289.041067A337.5104 337.5104 0 0 0 203.434667 638.702933a28.125867 28.125867 0 0 0 25.941333 25.258667 27.306667 27.306667 0 0 0 28.398933-30.446933 283.170133 283.170133 0 0 1 162.884267-294.5024c137.898667-61.303467 244.258133-21.162667 347.3408 36.727466a4.9152 4.9152 0 0 1-1.911467 9.284267A798.037333 798.037333 0 0 0 546.133333 436.906667c-90.385067 36.181333-138.717867 72.226133-169.1648 104.448a312.388267 312.388267 0 0 0-93.934933 165.341866 62.532267 62.532267 0 0 0 39.185067 75.093334 401.544533 401.544533 0 0 0 111.274666 16.657066c100.625067 0 183.637333-45.056 232.106667-129.570133a813.192533 813.192533 0 0 0 38.638933-79.0528c25.531733-57.344 45.602133-102.8096 117.5552-153.873067a60.484267 60.484267 0 0 0 25.668267-51.336533 48.196267 48.196267 0 0 0-24.029867-40.1408z" p-id="1213"></path></svg>