<?xml version="1.0" standalone="no"?><!DOCTYPE svg PUBLIC "-//W3C//DTD SVG 1.1//EN" "http://www.w3.org/Graphics/SVG/1.1/DTD/svg11.dtd"><svg t="1634487050189" class="icon" viewBox="0 0 1024 1024" version="1.1" xmlns="http://www.w3.org/2000/svg" p-id="19579" xmlns:xlink="http://www.w3.org/1999/xlink" width="200" height="200"><defs><style type="text/css"></style></defs><path d="M581.470723 106.312304l59.491952 47.449685 76.187193-5.323239c77.014024-5.478781 68.434625-9.924024 91.177606 72.206532l20.261463 73.448826 64.817238 40.367383c65.227584 40.832987 60.991096 32.200376 31.114648 112.058169l-26.77276 71.275323 28.634154 70.65827c28.944216 71.638597 30.597879 62.024635-40.627303 109.164259L822.178947 739.485061l-18.298761 74.017784c-18.710131 74.842569-11.784394 68.121494-96.861048 64.297398l-76.187193-3.41068-58.354036 48.998971c-59.07956 49.724495-49.620118 48.378847-116.246561-4.754281L396.79056 871.184569l-76.083839 5.375427c-77.015048 5.478781-68.485791 9.819646-91.177606-72.362075l-20.363793-73.396637-64.660672-40.523949c-65.48955-40.730657-61.147662-32.045857-31.16786-111.953791l26.723641-71.176063-28.635177-70.708412c-28.996404-71.535243-30.547737-62.024635 40.627303-109.058858l63.420425-41.970904 18.453281-74.016761c18.554588-74.895781 11.834536-68.12354 97.016591-64.298422l75.877131 3.41068 58.510602-49.205679C524.354887 51.756781 514.897492 53.128011 581.470723 106.312304L581.470723 106.312304zM240.280993 533.923312l0 74.067926c0 39.386032 26.620287 58.820664 79.907934 58.820664 55.202253 0 82.85608-21.606087 82.85608-64.609507l0-41.298592c0-14.473643-4.031826-27.291576-12.147668-38.559201-8.06263-11.267625-27.13501-31.115672-56.95927-59.647495-16.022928-16.023952-24.086581-30.082132-24.086581-42.073234l-1.447978-21.088294c0-12.248975 4.341888-18.297738 12.818957-18.297738 7.235798 0 10.803044 3.204995 10.803044 9.613962l0 59.544141 65.074088 0L397.099598 394.160151c0-38.352493-24.706705-57.477063-74.170257-57.477063-55.099922 0-82.649372 20.98494-82.649372 63.059198l0 36.388768c0 12.19781 3.721765 23.258727 11.164271 33.287127 7.339152 10.130731 26.15366 29.874401 56.545854 59.33641 15.765055 15.817244 23.622 29.566386 23.622 41.299615l0 38.559201c0 7.340175-4.341888 11.06194-12.871145 11.06194-9.097192 0-13.5936-3.721765-13.5936-11.164271L305.14735 533.923312 240.280993 533.923312 240.280993 533.923312zM569.944202 664.022369 569.944202 454.737832c0-36.95568-23.879873-55.460126-71.999824-55.460126-51.222615 0-76.910671 17.780969-76.910671 53.238528l0 52.565193 62.179155 0c0-3.721765-0.310062-9.355065-1.033539-16.694217-0.361227-7.442506-0.463558-13.025665-0.463558-16.850783 0-20.934798 4.185322-31.478945 12.661368-31.478945 7.442506 0 11.113105 4.341888 11.113105 12.922311l0 38.971593c0 4.498454-7.54586 10.544147-22.38073 18.09103-25.843598 13.129019-43.054585 24.188912-51.531654 32.976042-8.632611 8.683776-12.766768 18.917862-12.766768 30.652114l0 52.927443c0 27.498284 17.573237 41.24845 52.616358 41.24845 22.898523 0 36.697807-4.65195 41.556465-13.853519l0 10.029424L569.944202 664.022369 569.944202 664.022369zM505.490238 615.021352l0-67.763336c-14.83487 3.721765-22.278399 10.235109-22.278399 20.00359l0 47.759747c0 7.960299 3.824095 11.992125 11.630898 11.992125C501.922992 627.013477 505.490238 622.98165 505.490238 615.021352L505.490238 615.021352zM650.058844 664.022369 650.058844 339.474668l-64.298422 0 0 324.547701L650.058844 664.022369 650.058844 664.022369zM815.665603 552.84015l0-100.32494c0-35.45756-25.222451-53.238528-75.772754-53.238528-50.13791 0-75.051323 18.504446-75.051323 55.460126l0 157.595294c0 37.008892 24.913413 55.513338 75.051323 55.513338 50.54928 0 75.772754-17.780969 75.772754-53.341882l0-53.394071-64.50513 0 0 52.670593c0 8.78713-3.617387 13.232372-10.854209 13.232372-7.235798 0-10.854209-4.445242-10.854209-13.232372l0-60.940954L815.665603 552.839127 815.665603 552.84015zM751.160473 513.403976l0-60.423161c0-8.580422-3.617387-12.922311-10.854209-12.922311-7.235798 0-10.854209 4.341888-10.854209 12.922311l0 60.423161L751.160473 513.403976 751.160473 513.403976zM157.373749 471.329718c0 0 2.740414-30.237675 8.993838-63.782675 6.202259-33.546024 68.331271-99.393731 68.331271-99.393731s-96.965425 59.335387-104.719017 70.035076C122.382816 388.940266 157.373749 471.329718 157.373749 471.329718z" p-id="19580"></path></svg>