<?xml version="1.0" standalone="no"?><!DOCTYPE svg PUBLIC "-//W3C//DTD SVG 1.1//EN" "http://www.w3.org/Graphics/SVG/1.1/DTD/svg11.dtd"><svg t="1634488169825" class="icon" viewBox="0 0 1024 1024" version="1.1" xmlns="http://www.w3.org/2000/svg" p-id="1610" xmlns:xlink="http://www.w3.org/1999/xlink" width="200" height="200"><defs><style type="text/css"></style></defs><path d="M977.505249 230.897921v-2.060362a32.828437 32.828437 0 0 0-1.785647-3.84601 11.400671 11.400671 0 0 0-1.510932-2.060362l-3.29658-3.159222-2.060362-1.64829-1.923005-1.510932h-1.373575a2.472435 2.472435 0 0 0-0.961502-0.686787L522.439924 2.472435a23.900201 23.900201 0 0 0-21.153052 0L59.13315 215.376526l-0.961503 0.686787h-1.373574a9.477666 9.477666 0 0 0-1.785648 1.510932L52.814706 219.771965l-2.472435 3.021865c0 0.686787-1.09886 1.236217-1.510932 2.060362a19.092689 19.092689 0 0 0-1.64829 3.846009 9.202951 9.202951 0 0 0-0.824145 2.060362 20.466264 20.466264 0 0 0-0.961502 6.455802v75.271898l48.761905 27.471496v-48.624548a9.477666 9.477666 0 0 1 13.735748-8.516163l139.41784 67.167806a25.548491 25.548491 0 0 1 14.422535 22.938699v96.837022a24.449631 24.449631 0 0 0 48.761905 0v-74.173038a9.477666 9.477666 0 0 1 13.735748-8.653521l148.895506 71.837961a25.548491 25.548491 0 0 1 13.735748 22.938699v247.243461h48.761905v-247.243461a25.411133 25.411133 0 0 1 13.735748-23.076056l366.607109-175.95493a9.477666 9.477666 0 0 1 13.735748 8.653521v247.243461l48.899262-27.471496v-274.714956a33.24051 33.24051 0 0 0-1.09886-5.494299zM143.745356 245.869886a9.615023 9.615023 0 0 1 0-17.169685l357.129444-171.971563a26.235278 26.235278 0 0 1 22.251911 0l128.01717 61.673508a9.615023 9.615023 0 0 1 0 17.169685l-357.129443 172.10892a25.960563 25.960563 0 0 1-22.114554 0z" p-id="1611"></path><path d="M929.567489 538.578672V755.46613a25.823206 25.823206 0 0 1-14.422535 23.076056L549.911419 954.222401a9.477666 9.477666 0 0 1-13.735747-8.653521V729.230852h-48.624548v216.338028a9.615023 9.615023 0 0 1-13.735747 8.653521L94.159307 771.26224V339.685044L45.397402 312.62562v474.020658a24.586989 24.586989 0 0 0 13.735748 21.977196l442.153722 212.904091 2.609792 0.961503h1.923005a30.49336 30.49336 0 0 0 6.043729 0.824145 31.866935 31.866935 0 0 0 6.181087-0.824145h1.785647l2.609792-0.961503 442.153722-212.904091a24.724346 24.724346 0 0 0 13.735748-21.977196v-274.714957z" p-id="1612"></path></svg>