<?xml version="1.0" standalone="no"?><!DOCTYPE svg PUBLIC "-//W3C//DTD SVG 1.1//EN" "http://www.w3.org/Graphics/SVG/1.1/DTD/svg11.dtd"><svg t="1634487002996" class="icon" viewBox="0 0 1057 1024" version="1.1" xmlns="http://www.w3.org/2000/svg" p-id="18250" xmlns:xlink="http://www.w3.org/1999/xlink" width="206.4453125" height="200"><defs><style type="text/css"></style></defs><path d="M1026.865481 638.081151L640.912519 1024l19.921914-298.419348c-41.344793 3.752415-100.155373 0.750483-157.772004-8.698781-125.808248-20.604171-238.380705-69.078553-320.456259-151.188221-81.768539-81.734426-127.786795-194.98914-146.924113-325.300286a906.754081 906.754081 0 0 1-9.005796-160.330468l0.341129-8.971684c0.23879-4.264108 0.443467-7.777733 0.682257-10.574988l2.933706-32.748351 30.223999-2.72903c3.001932-0.272903 7.402492-0.545806 13.065228-0.852821L82.894263 23.879006l19.580785-0.47758 10.574989-0.068226C154.292491 23.367313 198.195749 26.198681 243.224732 32.85069c130.311147 19.103205 243.56586 65.155573 325.334399 146.924112 82.075555 82.075555 130.549937 194.648011 151.154108 320.456259 9.449264 57.650743 12.485309 116.42721 8.69878 157.806117l298.453462-19.956027zM520.289426 228.010394c-48.781398-48.781398-112.367779-83.371844-186.256246-105.613432C298.726364 226.134186 227.089346 296.781931 121.578253 332.225198l3.581851-1.262176c22.275701 73.990806 56.866147 137.679526 105.681658 186.495036 70.647745 70.647745 170.393764 113.595842 283.239123 132.085016 42.02705 6.890799 83.337731 9.824505 118.678659 9.244587l14.770871-0.443468 12.792325-0.852821 0.614031-8.289427 0.23879-4.537011 0.47758-14.77087a685.361583 685.361583 0 0 0-9.278699-118.644547c-18.45506-112.879472-61.403158-212.591379-132.050903-283.239123zM233.332001 100.291825a839.074156 839.074156 0 0 0-138.737025-8.596442 839.074156 839.074156 0 0 0 14.327404 172.645213c81.529749-29.88287 134.745819-85.009261 161.797322-167.494171l-3.172497 9.210474c-11.257246-2.149111-22.650943-4.093544-34.215204-5.765074z m157.4991 213.273636a34.112866 34.112866 0 1 1 14.463855 66.690652l-118.951562 25.789326a34.112866 34.112866 0 1 1-14.429742-66.690652z m120.623093 120.623093a34.112866 34.112866 0 1 1 14.429742 66.656539l-118.917449 25.789326a34.112866 34.112866 0 1 1-14.463855-66.656539z m338.808981 283.989606l-121.100673 8.084749-8.050636 121.100673 129.151309-129.185422zM182.640282 131.505097A34.112866 34.112866 0 1 1 134.336465 179.774802a34.112866 34.112866 0 0 1 48.235592-48.269705z" p-id="18251"></path></svg>