<?xml version="1.0" standalone="no"?><!DOCTYPE svg PUBLIC "-//W3C//DTD SVG 1.1//EN" "http://www.w3.org/Graphics/SVG/1.1/DTD/svg11.dtd"><svg t="1634487082357" class="icon" viewBox="0 0 1024 1024" version="1.1" xmlns="http://www.w3.org/2000/svg" p-id="20511" xmlns:xlink="http://www.w3.org/1999/xlink" width="200" height="200"><defs><style type="text/css"></style></defs><path d="M409.782327 409.782327H0.908455V0.908455h408.873872v408.873872zM69.054277 341.636505h272.582228V69.054277H69.054277v272.582228z" p-id="20512"></path><path d="M341.636505 171.27195h272.582228v68.145822H341.636505z" p-id="20513"></path><path d="M341.636505 171.27195h272.582228v68.145822H341.636505zM205.344861 341.636505H273.490683v272.582228h-68.145822zM750.509317 409.781267h68.144762v204.436406H750.509317zM443.854178 682.364555h170.364555V750.509317H443.854178z" p-id="20514"></path><path d="M1023.091545 477.927089H546.073971v-477.018634h477.017574v177.373549h-68.145822V69.054277H614.218733v340.72699h340.72699v-70.40795h68.145822zM477.927089 1023.091545h-477.018634V546.073971h477.018634v477.017574zM69.054277 954.945723h340.72699V614.218733H69.054277v340.72699z" p-id="20515"></path><path d="M693.721839 784.582228m-204.436406 0a204.436406 204.436406 0 1 0 408.872811 0 204.436406 204.436406 0 1 0-408.872811 0Z" fill="#E6E6E6" p-id="20516"></path><path d="M784.582228 1023.091545c-63.708489 0-123.602948-24.808149-168.651528-69.856729s-69.856729-104.944099-69.856729-168.652588 24.808149-123.602948 69.856729-168.651528 104.943039-69.856729 168.651528-69.856729 123.604008 24.808149 168.652588 69.856729 69.856729 104.943039 69.856729 168.651528-24.808149 123.604008-69.856729 168.652588-104.945159 69.856729-168.652588 69.856729z m0-408.872812c-93.938749 0-170.363495 76.424745-170.363495 170.363495s76.424745 170.364555 170.363495 170.364555 170.364555-76.425805 170.364555-170.364555-76.425805-170.363495-170.364555-170.363495z" p-id="20517"></path><path d="M784.582228 1023.091545c-63.708489 0-123.602948-24.808149-168.651528-69.856729s-69.856729-104.944099-69.856729-168.652588 24.808149-123.602948 69.856729-168.651528 104.943039-69.856729 168.651528-69.856729 123.604008 24.808149 168.652588 69.856729 69.856729 104.943039 69.856729 168.651528-24.808149 123.604008-69.856729 168.652588-104.945159 69.856729-168.652588 69.856729z m0-408.872812c-93.938749 0-170.363495 76.424745-170.363495 170.363495s76.424745 170.364555 170.363495 170.364555 170.364555-76.425805 170.364555-170.364555-76.425805-170.363495-170.364555-170.363495z" p-id="20518"></path></svg>