<?xml version="1.0" standalone="no"?><!DOCTYPE svg PUBLIC "-//W3C//DTD SVG 1.1//EN" "http://www.w3.org/Graphics/SVG/1.1/DTD/svg11.dtd"><svg t="1634487143617" class="icon" viewBox="0 0 1024 1024" version="1.1" xmlns="http://www.w3.org/2000/svg" p-id="22393" xmlns:xlink="http://www.w3.org/1999/xlink" width="200" height="200"><defs><style type="text/css"></style></defs><path d="M568.889116 0l0 455.110884 455.108837 0L1023.997953 0 568.889116 0zM967.109349 398.222279l-341.333674 0L625.775674 56.888605l341.333674 0L967.109349 398.222279zM113.778233 341.332651l227.555442 0L341.333674 113.777209 113.778233 113.777209 113.778233 341.332651zM0.001023 1023.998977l455.110884 0L455.111907 568.888093 0.001023 568.888093 0.001023 1023.998977zM56.889628 625.777721l341.333674 0 0 341.333674L56.889628 967.111395 56.889628 625.777721zM910.220744 113.777209 682.665302 113.777209l0 227.555442 227.555442 0L910.220744 113.777209zM0.001023 455.110884l455.110884 0L455.111907 0 0.001023 0 0.001023 455.110884zM56.889628 56.888605l341.333674 0 0 341.333674L56.889628 398.222279 56.889628 56.888605zM910.220744 1023.998977l113.778233 0L1023.998977 796.443535 910.220744 796.443535 910.220744 1023.998977zM910.220744 682.665302l113.778233 0L1023.998977 568.888093 910.220744 568.888093 910.220744 682.665302zM113.778233 910.220744l227.555442 0L341.333674 682.665302 113.778233 682.665302 113.778233 910.220744zM739.553907 568.888093 568.889116 568.888093l0 170.666837 170.664791 0 0 56.888605 113.778233 0L853.332139 682.665302 739.553907 682.665302 739.553907 568.888093zM568.889116 1023.998977 796.442512 1023.998977 796.442512 910.220744 568.889116 910.220744 568.889116 1023.998977z" p-id="22394"></path></svg>