<?xml version="1.0" standalone="no"?><!DOCTYPE svg PUBLIC "-//W3C//DTD SVG 1.1//EN" "http://www.w3.org/Graphics/SVG/1.1/DTD/svg11.dtd"><svg t="1634490122480" class="icon" viewBox="0 0 1024 1024" version="1.1" xmlns="http://www.w3.org/2000/svg" p-id="45611" xmlns:xlink="http://www.w3.org/1999/xlink" width="200" height="200"><defs><style type="text/css"></style></defs><path d="M662.04483 471.603965c-1.741667 0-3.441379 0.176009-5.094018 0.502443-1.144056-0.320295-2.354628-0.502443-3.569292-0.502443L400.467299 471.603965c-0.74906 0-1.471514 0.076748-2.171456 0.192382-1.031493-0.121773-2.086521-0.192382-3.140527-0.192382-14.836917 0-26.853601 12.33698-26.853601 27.554566 0 15.22168 12.016685 27.558659 26.853601 27.558659 1.054005 0 2.103918-0.071631 3.140527-0.197498 0.699941 0.12075 1.422396 0.197498 2.171456 0.197498l252.91422 0c1.219781 0 2.425236-0.186242 3.569292-0.50142 1.651616 0.325411 3.351328 0.50142 5.094018 0.50142 14.82566 0 26.839275-12.33698 26.839275-27.558659C688.883081 483.940944 676.87049 471.603965 662.04483 471.603965zM764.316098 588.305897c-1.747807 0-3.462868 0.177032-5.121648 0.496304-1.121544-0.320295-2.325975-0.496304-3.569292-0.496304L400.462183 588.305897c-0.751107 0-1.466398 0.076748-2.165316 0.188288-1.037632-0.12075-2.091638-0.188288-3.146667-0.188288-14.836917 0-26.847461 12.332886-26.847461 27.557636 0 15.213493 12.016685 27.556613 26.847461 27.556613 1.060145 0 2.109034-0.076748 3.146667-0.198521 0.699941 0.121773 1.414209 0.198521 2.165316 0.198521l355.162976 0c1.243317 0 2.448772-0.187265 3.569292-0.508583 1.658779 0.332575 3.373841 0.508583 5.121648 0.508583 14.820544 0 26.833135-12.343119 26.833135-27.556613C791.149233 600.638783 779.141758 588.305897 764.316098 588.305897zM764.316098 705.006805c-1.747807 0-3.462868 0.176009-5.121648 0.496304-1.121544-0.320295-2.325975-0.496304-3.569292-0.496304L400.462183 705.006805c-0.751107 0-1.466398 0.064468-2.165316 0.187265-1.037632-0.121773-2.091638-0.187265-3.146667-0.187265-14.836917 0-26.847461 12.33084-26.847461 27.555589 0 15.21247 12.016685 27.557636 26.847461 27.557636 1.060145 0 2.109034-0.077771 3.146667-0.199545 0.699941 0.121773 1.414209 0.199545 2.165316 0.199545l355.162976 0c1.243317 0 2.448772-0.189312 3.569292-0.50756 1.658779 0.330528 3.373841 0.50756 5.121648 0.50756 14.820544 0 26.833135-12.344143 26.833135-27.557636C791.149233 717.337645 779.141758 705.006805 764.316098 705.006805zM960.07355 903.07386 960.07355 118.668727c0 0 1.477654-55.783491-63.86147-55.783491L123.439892 62.885236c-62.434981 0-63.890122 55.783491-63.890122 55.783491l0 784.475741c0-0.069585-0.198521 55.789631 63.890122 55.789631l182.209902 0c0.594541 0 1.186012 0.039909 1.77032 0.039909 0.655939 0 1.299599-0.039909 1.959631-0.039909l586.826196 0C962.832384 958.933075 960.07355 903.07386 960.07355 903.07386zM255.318478 905.71399l-110.74629 0.070608c-27.975145 0-31.234375-25.695219-31.234375-25.695219L113.337813 138.612964c0-24.62791 31.345915-21.506826 31.345915-21.506826L255.318478 117.106138 255.318478 905.71399 255.318478 905.71399zM877.218494 904.754129 310.036707 904.754129 310.036707 117.104091l281.991466 0 0 239.216243 84.669378-77.340459 85.36625 77.340459L762.063801 117.104091l113.172549 0c31.716352 0 30.115901 21.612227 30.115901 21.612227l0 744.434793C905.351228 883.151112 906.901537 904.754129 877.218494 904.754129z" p-id="45612"></path></svg>