<?xml version="1.0" standalone="no"?><!DOCTYPE svg PUBLIC "-//W3C//DTD SVG 1.1//EN" "http://www.w3.org/Graphics/SVG/1.1/DTD/svg11.dtd"><svg t="1634489878378" class="icon" viewBox="0 0 1024 1024" version="1.1" xmlns="http://www.w3.org/2000/svg" p-id="44781" xmlns:xlink="http://www.w3.org/1999/xlink" width="200" height="200"><defs><style type="text/css"></style></defs><path d="M857.031111 322.37037l-189.62963-193.042963c-3.602963-3.602963-8.438519-5.688889-13.558519-5.688889L225.754074 123.638519c-35.84 0-64.948148 29.108148-64.948148 64.948148l0 646.826667c0 35.84 29.108148 64.948148 64.948148 64.948148l571.828148 0c35.84 0 64.948148-29.108148 64.948148-64.948148L862.53037 335.644444C862.53037 330.714074 860.539259 325.878519 857.031111 322.37037zM676.219259 186.216296l128.18963 130.56L707.413333 316.776296c-17.256296 0-31.288889-14.032593-31.288889-31.288889L676.124444 186.216296zM828.871111 835.413333c0 17.256296-14.032593 31.288889-31.288889 31.288889L225.754074 866.702222c-17.256296 0-31.288889-14.032593-31.288889-31.288889L194.465185 188.586667c0-17.256296 14.032593-31.288889 31.288889-31.288889l416.805926 0 0 128.18963c0 35.84 29.108148 64.948148 64.948148 64.948148l121.362963 0L828.871111 835.413333z" p-id="44782"></path><path d="M307.958519 320.948148l157.677037 0c9.197037 0 16.687407-7.395556 16.877037-16.497778 0.18963-9.481481-7.86963-17.161481-17.256296-17.161481L307.958519 287.288889c-9.291852 0-16.877037 7.585185-16.877037 16.877037S298.666667 320.948148 307.958519 320.948148z" p-id="44783"></path><path d="M307.958519 406.755556l157.677037 0c9.197037 0 16.687407-7.395556 16.877037-16.497778 0.18963-9.481481-7.86963-17.161481-17.256296-17.161481L307.958519 373.096296c-9.291852 0-16.877037 7.585185-16.877037 16.877037S298.666667 406.755556 307.958519 406.755556z" p-id="44784"></path><path d="M307.958519 492.562963l157.677037 0c9.197037 0 16.687407-7.395556 16.877037-16.497778 0.18963-9.481481-7.86963-17.161481-17.256296-17.161481L307.958519 458.903704c-9.291852 0-16.877037 7.585185-16.877037 16.877037S298.666667 492.562963 307.958519 492.562963z" p-id="44785"></path><path d="M291.271111 608.521481c0 9.291852 7.585185 16.877037 16.877037 16.877037l407.04 0c9.197037 0 16.687407-7.395556 16.877037-16.497778 0.18963-9.481481-7.86963-17.161481-17.256296-17.161481L308.148148 591.739259C298.761481 591.739259 291.271111 599.22963 291.271111 608.521481z" p-id="44786"></path><path d="M714.714074 698.88 308.148148 698.88c-9.291852 0-16.877037 7.585185-16.877037 16.877037s7.585185 16.877037 16.877037 16.877037l407.04 0c9.197037 0 16.687407-7.395556 16.877037-16.497778C732.16 706.56 724.195556 698.88 714.714074 698.88z" p-id="44787"></path></svg>