<?xml version="1.0" standalone="no"?><!DOCTYPE svg PUBLIC "-//W3C//DTD SVG 1.1//EN" "http://www.w3.org/Graphics/SVG/1.1/DTD/svg11.dtd"><svg t="1634994928727" class="icon" viewBox="0 0 1024 1024" version="1.1" xmlns="http://www.w3.org/2000/svg" p-id="9063" xmlns:xlink="http://www.w3.org/1999/xlink" width="200" height="200"><defs><style type="text/css"></style></defs><path d="M162.105 177.431H80.61c0 45.011 36.484 81.495 81.495 81.495 45.002 0 81.487-36.484 81.487-81.495 0-45.003-36.484-81.487-81.487-81.487-45.011 0-81.495 36.484-81.495 81.487h81.495zM80.61 848.928c0 44.984 36.484 81.479 81.495 81.479 45.002 0 81.487-36.494 81.487-81.479 0-45.018-36.484-81.494-81.487-81.494-45.011 0-81.495 36.476-81.495 81.494zM752.1 177.431c0 45.011 36.475 81.495 81.494 81.495 45.004 0 81.48-36.484 81.48-81.495 0-45.003-36.477-81.487-81.48-81.487-45.02-0.001-81.494 36.484-81.494 81.487z" fill="#333333" p-id="9064"></path><path d="M162.105 136.689h671.489v81.487H162.105v-81.487z m0 671.493H439.5v81.496H162.105v-81.496z" fill="#333333" p-id="9065"></path><path d="M202.847 177.431v671.497h-81.488V177.431h81.488z m671.497 0v281.81h-81.496V177.416l81.496 0.015zM800.184 527.477l114.842 114.846-235.732 235.85-114.862-114.862 235.752-235.834z m125.728 103.955L811.055 516.631l31.279-31.287c13.527-13.52 35.465-13.52 48.979 0h0.014l65.932 65.931c13.512 13.529 13.527 35.467 0 48.992l-31.277 31.279-0.07-0.114zM513.49 930.457l154.896-41.561-113.425-113.441-41.471 155.002z" fill="#333333" p-id="9066"></path></svg>