<?xml version="1.0" standalone="no"?><!DOCTYPE svg PUBLIC "-//W3C//DTD SVG 1.1//EN" "http://www.w3.org/Graphics/SVG/1.1/DTD/svg11.dtd"><svg t="1634738673735" class="icon" viewBox="0 0 1024 1024" version="1.1" xmlns="http://www.w3.org/2000/svg" p-id="9826" xmlns:xlink="http://www.w3.org/1999/xlink" width="200" height="200"><defs><style type="text/css"></style></defs><path d="M705.8 844.3c-19.3 0-34.9-15.6-34.9-34.9V510.5c0-87.6-71.3-158.9-158.9-158.9-87.6 0-158.9 71.3-158.9 158.9v298.9c0 19.3-15.6 34.9-34.9 34.9s-34.9-15.6-34.9-34.9V510.5c0-126.1 102.6-228.6 228.6-228.6s228.6 102.6 228.6 228.6v298.9c0.1 19.3-15.5 34.9-34.7 34.9z" fill="#706D7E" p-id="9827"></path><path d="M832.8 844.3H191.2c-19.3 0-34.9-15.6-34.9-34.9s15.6-34.9 34.9-34.9h641.5c19.3 0 34.9 15.6 34.9 34.9s-15.6 34.9-34.8 34.9z" fill="#706D7E" p-id="9828"></path><path d="M469.4 766.4c-6.2 0-12.5-1.7-18.2-5.1-16.4-10.1-21.6-31.5-11.5-48l73.8-120.6h-65.3c-12.6 0-24.3-6.8-30.5-17.9-6.2-11-5.9-24.6 0.8-35.3l80.9-131.1c10.1-16.4 31.6-21.5 48-11.4s21.5 31.6 11.4 48l-48.1 77.9h65.1c12.6 0 24.3 6.8 30.4 17.8 6.2 11 5.9 24.5-0.7 35.3L499.2 749.7c-6.6 10.7-18 16.7-29.8 16.7z" fill="#5AC0F9" p-id="9829"></path><path d="M515 240.4c-19.3 0-34.9-15.6-34.9-34.9v-88.6c0-19.3 15.6-34.9 34.9-34.9 19.3 0 34.9 15.6 34.9 34.9v88.6c0 19.3-15.6 34.9-34.9 34.9zM329.4 288.5c-12.1 0-23.8-6.3-30.2-17.4l-44.3-76.7c-9.6-16.7-3.9-38 12.8-47.7 16.7-9.6 38-3.9 47.6 12.8l44.3 76.7c9.6 16.7 3.9 38-12.8 47.7-5.5 3.1-11.5 4.6-17.4 4.6zM192.6 423c-5.9 0-11.9-1.5-17.4-4.7L98.5 374c-16.7-9.6-22.4-31-12.8-47.7 9.6-16.7 31-22.4 47.6-12.8l76.7 44.3c16.7 9.6 22.4 31 12.8 47.7-6.4 11.2-18.1 17.5-30.2 17.5zM141.5 607.8H52.9C33.6 607.8 18 592.2 18 573s15.6-34.9 34.9-34.9h88.6c19.3 0 34.9 15.6 34.9 34.9s-15.7 34.8-34.9 34.8zM971.1 613.9h-88.6c-19.3 0-34.9-15.6-34.9-34.9s15.6-34.9 34.9-34.9h88.6c19.3 0 34.9 15.6 34.9 34.9s-15.6 34.9-34.9 34.9zM834.4 428.3c-12.1 0-23.8-6.3-30.2-17.4-9.6-16.7-3.9-38 12.8-47.6l76.7-44.3c16.7-9.7 38-3.9 47.6 12.8 9.6 16.7 3.9 38-12.8 47.6l-76.7 44.3c-5.5 3.1-11.4 4.6-17.4 4.6zM699.9 291.5c-5.9 0-11.9-1.5-17.4-4.7-16.7-9.6-22.4-31-12.8-47.7l44.3-76.7c9.6-16.7 31-22.4 47.6-12.8 16.7 9.6 22.4 31 12.8 47.7L730.1 274c-6.5 11.3-18.2 17.5-30.2 17.5z" fill="#706D7E" p-id="9830"></path></svg>