<?xml version="1.0" standalone="no"?><!DOCTYPE svg PUBLIC "-//W3C//DTD SVG 1.1//EN" "http://www.w3.org/Graphics/SVG/1.1/DTD/svg11.dtd"><svg t="1635522924726" class="icon" viewBox="0 0 1024 1024" version="1.1" xmlns="http://www.w3.org/2000/svg" p-id="2392" xmlns:xlink="http://www.w3.org/1999/xlink" width="200" height="200"><defs><style type="text/css"></style></defs><path d="M871.111111 198.343111c17.692444 0 32 14.307556 32 32l-0.028444 385.080889h-71.992889v-56.32H185.799111v238.563556h415.203556v71.964444H145.777778c-16.497778 0-30.065778-12.430222-31.800889-28.472889L113.777778 837.660444V230.371556c0-17.720889 14.307556-32.028444 32-32.028445zM831.118222 261.688889H185.742222v233.415111H831.146667V261.688889z" fill="#1296db" p-id="2393"></path><path d="M795.221333 668.359111c78.563556 0 142.222222 63.089778 142.222223 140.942222s-63.658667 140.942222-142.222223 140.942223c-78.535111 0-142.222222-63.089778-142.222222-140.942223s63.687111-140.942222 142.222222-140.942222z m76.487111 103.594667l-118.869333 110.307555c12.487111 7.054222 26.936889 11.093333 42.382222 11.093334 47.246222 0 85.333333-37.745778 85.333334-84.053334 0-13.397333-3.185778-26.083556-8.846223-37.347555z m-76.487111-46.705778c-47.217778 0-85.333333 37.745778-85.333333 84.053333 0 12.686222 2.872889 24.746667 7.992889 35.555556l117.959111-109.511111a85.959111 85.959111 0 0 0-40.618667-10.097778zM590.222222 648.874667c4.408889 0 7.992889 3.584 7.992889 7.964444v48.014222a8.021333 8.021333 0 0 1-7.992889 8.021334H263.992889A8.021333 8.021333 0 0 1 256 704.853333v-47.985777c0-4.408889 3.612444-7.992889 7.992889-7.992889z m132.437334-311.808a39.992889 39.992889 0 1 1 0 79.985777 39.992889 39.992889 0 0 1 0-79.985777z m-130.645334 7.992889c4.380444 0 7.964444 3.612444 7.964445 7.992888V401.066667a8.021333 8.021333 0 0 1-7.964445 7.992889H265.728a8.021333 8.021333 0 0 1-7.964444-7.992889v-48.014223c0-4.380444 3.584-7.992889 7.964444-7.992888z" fill="#1296db" p-id="2394"></path></svg>