<?xml version="1.0" standalone="no"?><!DOCTYPE svg PUBLIC "-//W3C//DTD SVG 1.1//EN" "http://www.w3.org/Graphics/SVG/1.1/DTD/svg11.dtd"><svg t="1635522951601" class="icon" viewBox="0 0 1024 1024" version="1.1" xmlns="http://www.w3.org/2000/svg" p-id="4732" xmlns:xlink="http://www.w3.org/1999/xlink" width="200" height="200"><defs><style type="text/css"></style></defs><path d="M871.111111 198.343111c17.692444 0 32 14.307556 32 32l-0.028444 385.080889h-71.992889v-56.32H185.799111v238.563556h415.203556v71.964444H145.777778c-16.497778 0-30.065778-12.430222-31.800889-28.472889L113.777778 837.660444V230.371556c0-17.720889 14.307556-32.028444 32-32.028445zM831.118222 261.688889H185.742222v233.415111H831.146667V261.688889z" fill="#1296db" p-id="4733"></path><path d="M793.457778 668.387556a140.970667 140.970667 0 1 1 6.087111 281.856h-6.087111c-10.24 0.056889-20.48-0.995556-30.492445-3.214223l-5.632-1.365333a141.084444 141.084444 0 0 1 36.124445-277.276444z m-84.565334 141.084444c0 33.962667 20.366222 64.625778 51.655112 77.852444h1.052444a28.330667 28.330667 0 0 1-10.353778-18.147555v-17.521778l-42.211555-42.183111h-0.142223z m117.617778-78.023111l-1.536 1.223111a27.107556 27.107556 0 0 1-13.539555 5.973333h-33.223111v28.16a14.165333 14.165333 0 0 1-11.576889 13.880889h-30.321778v28.16h84.565333c6.826667 0 12.657778 4.864 13.852445 11.576889v44.8h14.023111a28.046222 28.046222 0 0 1 6.257778 0 84.565333 84.565333 0 0 0-5.347556-119.466667 85.788444 85.788444 0 0 0-24.064-15.217777l0.910222 0.910222zM590.222222 648.874667c4.408889 0 7.992889 3.584 7.992889 7.964444v48.014222a8.021333 8.021333 0 0 1-7.992889 8.021334H263.992889A8.021333 8.021333 0 0 1 256 704.853333v-47.985777c0-4.408889 3.612444-7.992889 7.992889-7.992889z m132.437334-311.808a39.992889 39.992889 0 1 1 0 79.985777 39.992889 39.992889 0 0 1 0-79.985777z m-130.645334 7.992889c4.380444 0 7.964444 3.612444 7.964445 7.992888V401.066667a8.021333 8.021333 0 0 1-7.964445 7.992889H265.728a8.021333 8.021333 0 0 1-7.964444-7.992889v-48.014223c0-4.380444 3.584-7.992889 7.964444-7.992888z" fill="#1296db" p-id="4734"></path></svg>