<?xml version="1.0" standalone="no"?><!DOCTYPE svg PUBLIC "-//W3C//DTD SVG 1.1//EN" "http://www.w3.org/Graphics/SVG/1.1/DTD/svg11.dtd"><svg t="1635699411840" class="icon" viewBox="0 0 1024 1024" version="1.1" xmlns="http://www.w3.org/2000/svg" p-id="18598" xmlns:xlink="http://www.w3.org/1999/xlink" width="200" height="200"><defs><style type="text/css"></style></defs><path d="M648 144s-10.64 7.85-24 24.39C592 208 552 288 528 368l-31.25-39.1C474.86 301.63 438.7 263.4 424 248c-57.8 60.52-184 242.28-184 408 0 115.6 87.58 210.74 200 222.72 7.89 0.84 15.89 1.28 24 1.28 123.71 0 224-100.29 224-224 0-12.3-0.79-24.6-2.27-36.85l2.27 4.66c89.07-4.18 160-77.71 160-167.81 0-156-200-312-200-312z" fill="#1296db" opacity=".3" p-id="18599"></path><path d="M788.44 335.11c-14.39-33.4-34.39-68.04-59.45-102.94-42.45-59.12-84.35-98.26-86.11-99.89-6.35-5.9-16.24-5.67-22.3 0.52-6.07 6.18-6.12 16.07-0.11 22.31 20.61 21.4 53.65 67.15 80.99 121.12C724.52 321.74 752 389.88 752 456c0 35.06-11.6 67.99-33.54 95.24-17.67 21.95-41.22 38.59-67.5 47.98-5.67-32.9-16.12-67.12-31.27-102.29-19.04-44.19-45.51-90.03-78.7-136.25-56.29-78.4-111.78-130.23-114.11-132.39-6.37-5.91-16.29-5.66-22.35 0.57-6.06 6.23-6.04 16.16 0.05 22.36 21.41 21.82 69.21 79.83 112.61 158.84C579.02 522.6 592 605.92 592 656c0 52.97-19.92 103.43-56.09 142.08-36 38.47-84.67 61.69-137.04 65.39-8.38 0.59-14.87 7.56-14.87 15.96 0 8.4 6.49 15.37 14.87 15.96 5.77 0.41 11.53 0.62 17.13 0.62 64.11 0 124.38-24.96 169.71-70.29S656 720.11 656 656c0-5.78-0.17-11.61-0.5-17.5 41.66-5.3 80.1-24.62 109.46-55.31C797.87 548.79 816 503.62 816 456c0-37.77-9.27-78.45-27.56-120.89z" fill="#1296db" opacity=".3" p-id="18600"></path><path d="M788.44 335.11c-14.39-33.4-34.39-68.04-59.45-102.94-42.45-59.12-84.35-98.26-86.11-99.89-6.14-5.7-15.64-5.7-21.77 0-3.38 3.14-77.84 72.87-128.13 166.83-36.25-42.97-64.44-69.3-66.09-70.83-6.14-5.7-15.64-5.7-21.77 0-2.33 2.17-57.82 53.99-114.11 132.39-33.19 46.22-59.66 92.06-78.7 136.25C188.21 552.84 176 606.37 176 656c0 64.11 24.96 124.38 70.29 169.71S351.89 896 416 896s124.38-24.96 169.71-70.29S656 720.11 656 656c0-5.78-0.17-11.61-0.5-17.5 41.66-5.3 80.1-24.62 109.46-55.31C797.87 548.79 816 503.62 816 456c0-37.77-9.27-78.45-27.56-120.89zM416 864c-114.69 0-208-93.31-208-208 0-45.16 11.29-94.32 33.56-146.11 18.06-42.01 43.32-85.77 75.08-130.06 40.04-55.85 80.54-98.58 99.37-117.47 18.76 18.81 59.01 61.27 99 116.97 31.84 44.35 57.18 88.17 75.3 130.25C612.66 561.48 624 610.75 624 656c0 114.69-93.31 208-208 208z m325.84-302.93c-24.09 25.18-55.55 41.08-89.67 45.6-5.32-35.18-16.18-71.91-32.47-109.75-19.04-44.19-45.51-90.03-78.7-136.25a972.393 972.393 0 0 0-25.98-34.53c37.01-74.07 93.46-135.69 116.99-159.67 15 15.26 43.33 45.76 71.35 84.86C740.15 302.67 784 379.85 784 456c0 39.34-14.97 76.65-42.16 105.07z" fill="#1296db" p-id="18601"></path><path d="M344 624h-32c-8.84 0-16 7.16-16 16v112c0 8.84 7.16 16 16 16s16-7.16 16-16v-32h16c26.47 0 48-21.53 48-48s-21.53-48-48-48z m0 64h-16v-32h16c8.82 0 16 7.18 16 16s-7.18 16-16 16zM536 528c-8.84 0-16 7.16-16 16v64h-64v-64c0-8.84-7.16-16-16-16s-16 7.16-16 16v160c0 8.84 7.16 16 16 16s16-7.16 16-16v-64h64v64c0 8.84 7.16 16 16 16s16-7.16 16-16V544c0-8.84-7.16-16-16-16z" fill="#1296db" p-id="18602"></path></svg>