<?xml version="1.0" standalone="no"?><!DOCTYPE svg PUBLIC "-//W3C//DTD SVG 1.1//EN" "http://www.w3.org/Graphics/SVG/1.1/DTD/svg11.dtd"><svg t="1634738208437" class="icon" viewBox="0 0 1024 1024" version="1.1" xmlns="http://www.w3.org/2000/svg" p-id="7039" xmlns:xlink="http://www.w3.org/1999/xlink" width="200" height="200"><defs><style type="text/css"></style></defs><path d="M781.112889 314.168889a24.263111 24.263111 0 0 0 2.446222-10.552889V213.048889a24.32 24.32 0 0 0-23.694222-24.32H150.983111a24.32 24.32 0 0 0-24.32 24.32v90.567111c0.056889 3.669333 0.910222 7.281778 2.56 10.552889l40.96 84.138667v345.201777l-41.073778 84.110223a24.263111 24.263111 0 0 0-2.446222 10.581333v90.794667a24.32 24.32 0 0 0 24.32 24.32h608.881778a24.32 24.32 0 0 0 23.694222-24.32v-90.794667a24.263111 24.263111 0 0 0-2.446222-10.581333l-41.073778-84.110223V398.307556l41.073778-84.138667z m-58.737778 542.236444v40.277334H187.847111v-40.277334h534.528z m-38.200889-465.834666a23.893333 23.893333 0 0 0-2.332444 10.24v340.195555c0 3.584 0.796444 7.111111 2.332444 10.353778l25.856 51.712H200.931556l25.287111-51.712a23.893333 23.893333 0 0 0 2.304-10.24V400.782222a23.893333 23.893333 0 0 0-2.304-10.211555l-25.315556-51.712h509.127111l-25.884444 51.712zM187.847111 285.525333V245.589333h534.528v39.936H187.847111z" fill="#1296db" p-id="7040"></path><path d="M454.542222 388.778667a180.280889 180.280889 0 0 0-177.777778 182.158222 185.969778 185.969778 0 0 0 23.438223 90.254222 175.928889 175.928889 0 0 0 309.816889 0 185.969778 185.969778 0 0 0 23.409777-90.254222 180.394667 180.394667 0 0 0-178.858666-182.158222z m-70.257778 226.816c4.266667 0.028444 8.533333 0.910222 12.487112 2.56 5.12 2.104889 10.865778 1.848889 15.758222-0.682667a19.683556 19.683556 0 0 0 9.841778-12.316444 33.28 33.28 0 0 1 64.682666 0 19.683556 19.683556 0 0 0 9.841778 12.515555 18.716444 18.716444 0 0 0 15.758222 0.568889 33.194667 33.194667 0 0 1 45.596445 25.514667 120.206222 120.206222 0 0 1-207.36 0 33.848889 33.848889 0 0 1 33.365333-28.16z m70.257778-88.035556a71.594667 71.594667 0 0 0-62.008889 36.636445c-2.958222 0-6.001778 0-8.675555-0.568889a71.111111 71.111111 0 0 0-49.720889 20.48 122.197333 122.197333 0 1 1 242.517333-19.029334c0 6.371556-0.483556 12.714667-1.393778 19.000889a71.281778 71.281778 0 0 0-49.208888-20.48c-2.901333 0-5.802667 0.199111-8.675556 0.597334a71.765333 71.765333 0 0 0-62.833778-36.636445z" fill="#1296db" p-id="7041"></path></svg>