<?xml version="1.0" standalone="no"?><!DOCTYPE svg PUBLIC "-//W3C//DTD SVG 1.1//EN" "http://www.w3.org/Graphics/SVG/1.1/DTD/svg11.dtd"><svg t="1634737944778" class="icon" viewBox="0 0 1126 1024" version="1.1" xmlns="http://www.w3.org/2000/svg" p-id="2059" xmlns:xlink="http://www.w3.org/1999/xlink" width="219.921875" height="200"><defs><style type="text/css"></style></defs><path d="M1102.506667 617.813333l-109.226667-119.466666c-6.826667-6.826667-17.066667-17.066667-37.546667-17.066667-13.653333 0-27.306667 6.826667-37.546666 17.066667-10.24 10.24-17.066667 23.893333-17.066667 37.546666v37.546667c-37.546667 3.413333-68.266667 13.653333-95.573333 30.72-30.72 17.066667-54.613333 40.96-71.68 68.266667-30.72 51.2-34.133333 105.813333-37.546667 133.12v10.24c0 30.72 27.306667 51.2 54.613333 47.786666 17.066667 0 30.72-10.24 40.96-27.306666 30.72-47.786667 64.853333-75.093333 112.64-78.506667v47.786667c0 27.306667 20.48 47.786667 47.786667 47.786666 20.48 0 30.72-10.24 37.546667-17.066666l109.226666-122.88c10.24-10.24 23.893333-23.893333 23.893334-47.786667 0-17.066667-6.826667-34.133333-20.48-47.786667z m-51.2 58.026667l-95.573334 105.813333v-51.2c0-13.653333-10.24-27.306667-27.306666-27.306666-40.96 0-78.506667 6.826667-112.64 27.306666-20.48 10.24-40.96 27.306667-61.44 51.2 10.24-75.093333 44.373333-146.773333 167.253333-153.6 13.653333 0 27.306667-13.653333 27.306667-27.306666v-47.786667l102.4 109.226667c3.413333 3.413333 3.413333 3.413333 3.413333 6.826666 3.413333 0 0 3.413333-3.413333 6.826667z" p-id="2060" fill="#1296db"></path><path d="M1003.52 430.08c13.653333 10.24 37.546667 3.413333 51.2-13.653333 13.653333-17.066667 10.24-40.96-6.826667-51.2l-484.693333-344.746667c-3.413333-3.413333-6.826667-6.826667-13.653333-10.24-13.653333-6.826667-34.133333-3.413333-47.786667 13.653333l-481.28 341.333334c-13.653333 10.24-17.066667 34.133333-6.826667 51.2 13.653333 17.066667 34.133333 23.893333 51.2 13.653333l34.133334-23.893333v563.2c0 20.48 17.066667 37.546667 37.546666 37.546666s37.546667-17.066667 37.546667-37.546666v-617.813334l361.813333-252.586666 467.626667 331.093333z" p-id="2061" fill="#1296db"></path><path d="M365.226667 399.36h-85.333334c-30.72 0-37.546667 6.826667-37.546666 37.546667v85.333333c0 30.72 6.826667 37.546667 37.546666 37.546667h85.333334c30.72 0 37.546667-6.826667 37.546666-37.546667v-85.333333c3.413333-30.72-3.413333-37.546667-37.546666-37.546667zM365.226667 604.16h-85.333334c-30.72 0-37.546667 6.826667-37.546666 37.546667v85.333333c0 30.72 6.826667 37.546667 37.546666 37.546667h85.333334c30.72 0 37.546667-6.826667 37.546666-37.546667v-85.333333c3.413333-30.72-3.413333-37.546667-37.546666-37.546667zM365.226667 808.96h-85.333334c-30.72 0-37.546667 6.826667-37.546666 37.546667v85.333333c0 30.72 6.826667 37.546667 37.546666 37.546667h85.333334c30.72 0 37.546667-6.826667 37.546666-37.546667v-85.333333c3.413333-30.72-3.413333-37.546667-37.546666-37.546667zM583.68 808.96h-85.333333c-30.72 0-37.546667 6.826667-37.546667 37.546667v85.333333c0 30.72 6.826667 37.546667 37.546667 37.546667h85.333333c30.72 0 37.546667-6.826667 37.546667-37.546667v-85.333333c0-30.72-6.826667-37.546667-37.546667-37.546667zM583.68 604.16h-85.333333c-30.72 0-37.546667 6.826667-37.546667 37.546667v85.333333c0 30.72 6.826667 37.546667 37.546667 37.546667h85.333333c30.72 0 37.546667-6.826667 37.546667-37.546667v-85.333333c0-30.72-6.826667-37.546667-37.546667-37.546667z" p-id="2062" fill="#1296db"></path></svg>