<?xml version="1.0" standalone="no"?><!DOCTYPE svg PUBLIC "-//W3C//DTD SVG 1.1//EN" "http://www.w3.org/Graphics/SVG/1.1/DTD/svg11.dtd"><svg t="1634738237829" class="icon" viewBox="0 0 1128 1024" version="1.1" xmlns="http://www.w3.org/2000/svg" p-id="8789" xmlns:xlink="http://www.w3.org/1999/xlink" width="220.3125" height="200"><defs><style type="text/css"></style></defs><path d="M1128.940544 819.2v-10.24c-3.413333-27.306667-6.826667-81.92-37.546667-133.12-17.066667-27.306667-40.96-51.2-71.68-68.266667-27.306667-17.066667-58.026667-27.306667-95.573333-30.72v-37.546666c0-13.653333-6.826667-27.306667-17.066667-37.546667-10.24-10.24-23.893333-17.066667-37.546666-17.066667-20.48 0-30.72 10.24-37.546667 17.066667l-109.226667 119.466667c-13.653333 13.653333-20.48 30.72-20.48 47.786666 0 23.893333 13.653333 37.546667 23.893334 47.786667l109.226666 122.88c6.826667 6.826667 17.066667 17.066667 37.546667 17.066667 27.306667 0 47.786667-20.48 47.786667-47.786667v-47.786667c47.786667 3.413333 81.92 30.72 112.64 78.506667 10.24 17.066667 23.893333 27.306667 40.96 27.306667 27.306667 3.413333 54.613333-17.066667 54.613333-47.786667 0 3.413333 0 0 0 0z m-119.466667-85.333333c-34.133333-20.48-71.68-27.306667-112.64-27.306667-17.066667 0-27.306667 13.653333-27.306666 27.306667v51.2l-95.573334-105.813334-6.826666-6.826666c0-3.413333 0-3.413333 3.413333-6.826667l102.4-109.226667v47.786667c0 13.653333 13.653333 27.306667 27.306667 27.306667 126.293333 6.826667 160.426667 78.506667 170.666666 153.6-20.48-23.893333-40.96-40.96-61.44-51.2z" p-id="8790" fill="#1296db"></path><path d="M1009.473877 430.08c13.653333 10.24 37.546667 3.413333 51.2-13.653333 13.653333-17.066667 10.24-40.96-6.826666-51.2l-491.52-348.16c-3.413333-3.413333-6.826667-6.826667-13.653334-10.24-13.653333-6.826667-34.133333-3.413333-47.786666 13.653333l-488.106667 344.746667c-13.653333 10.24-17.066667 34.133333-6.826667 51.2 13.653333 17.066667 34.133333 23.893333 51.2 13.653333l34.133334-23.893333v570.026666c0 20.48 17.066667 37.546667 37.546666 37.546667 20.48 0 37.546667-17.066667 37.546667-37.546667v-624.64l365.226667-256 477.866666 334.506667z" p-id="8791" fill="#1296db"></path><path d="M364.353877 399.36h-85.333333c-30.72 0-37.546667 6.826667-37.546667 37.546667v85.333333c0 30.72 6.826667 37.546667 37.546667 37.546667h85.333333c30.72 0 37.546667-6.826667 37.546667-37.546667v-85.333333c3.413333-30.72-3.413333-37.546667-37.546667-37.546667zM364.353877 607.573333h-85.333333c-30.72 0-37.546667 6.826667-37.546667 37.546667v85.333333c0 30.72 6.826667 37.546667 37.546667 37.546667h85.333333c30.72 0 37.546667-6.826667 37.546667-37.546667v-85.333333c3.413333-30.72-3.413333-37.546667-37.546667-37.546667zM364.353877 815.786667h-85.333333c-30.72 0-37.546667 6.826667-37.546667 37.546666v85.333334c0 30.72 6.826667 37.546667 37.546667 37.546666h85.333333c30.72 0 37.546667-6.826667 37.546667-37.546666V853.333333c3.413333-30.72-3.413333-37.546667-37.546667-37.546666zM586.220544 815.786667h-85.333333c-30.72 0-37.546667 6.826667-37.546667 37.546666v85.333334c0 30.72 6.826667 37.546667 37.546667 37.546666h85.333333c30.72 0 37.546667-6.826667 37.546667-37.546666V853.333333c0-30.72-6.826667-37.546667-37.546667-37.546666zM586.220544 607.573333h-85.333333c-30.72 0-37.546667 6.826667-37.546667 37.546667v85.333333c0 30.72 6.826667 37.546667 37.546667 37.546667h85.333333c30.72 0 37.546667-6.826667 37.546667-37.546667v-85.333333c0-30.72-6.826667-37.546667-37.546667-37.546667z" p-id="8792" fill="#1296db"></path></svg>