<?xml version="1.0" standalone="no"?><!DOCTYPE svg PUBLIC "-//W3C//DTD SVG 1.1//EN" "http://www.w3.org/Graphics/SVG/1.1/DTD/svg11.dtd"><svg t="1635522987178" class="icon" viewBox="0 0 1024 1024" version="1.1" xmlns="http://www.w3.org/2000/svg" p-id="7530" xmlns:xlink="http://www.w3.org/1999/xlink" width="200" height="200"><defs><style type="text/css"></style></defs><path d="M871.111111 198.343111h-725.333333C128.085333 198.343111 113.777778 212.650667 113.777778 230.343111v607.288889c0 17.720889 14.307556 32.028444 32 32.028444h725.333333c17.692444 0 32-14.307556 32-32V230.371556c0-17.720889-14.307556-32.028444-32-32.028445z m-39.992889 296.760889H185.742222V261.688889H831.146667v233.415111z m0 302.563556H185.742222v-238.563556H831.146667v238.563556z" fill="#1296db" p-id="7531"></path><path d="M722.659556 640.853333a39.992889 39.992889 0 1 1 0 80.014223 39.992889 39.992889 0 0 1 0-80.014223z m-132.437334 8.021334c4.408889 0 7.992889 3.584 7.992889 7.964444v48.014222a8.021333 8.021333 0 0 1-7.992889 8.021334H263.992889A8.021333 8.021333 0 0 1 256 704.853333v-47.985777c0-4.408889 3.612444-7.992889 7.992889-7.992889z m132.437334-311.808a39.992889 39.992889 0 1 1 0 79.985777 39.992889 39.992889 0 0 1 0-79.985777z m-130.645334 7.992889c4.380444 0 7.964444 3.612444 7.964445 7.992888V401.066667a8.021333 8.021333 0 0 1-7.964445 7.992889H265.728a8.021333 8.021333 0 0 1-7.964444-7.992889v-48.014223c0-4.380444 3.584-7.992889 7.964444-7.992888z" fill="#1296db" p-id="7532"></path></svg>