<?xml version="1.0" standalone="no"?><!DOCTYPE svg PUBLIC "-//W3C//DTD SVG 1.1//EN" "http://www.w3.org/Graphics/SVG/1.1/DTD/svg11.dtd"><svg t="1638287665689" class="icon" viewBox="0 0 1024 1024" version="1.1" xmlns="http://www.w3.org/2000/svg" p-id="2683" xmlns:xlink="http://www.w3.org/1999/xlink" width="200" height="200"><defs><style type="text/css"></style></defs><path d="M803.142893 637.425617 224.669946 637.425617c-88.305185 0-160.14742-71.777767-160.14742-160.003134 0-72.767304 49.641607-135.974881 118.334105-154.500816-0.098237-1.908466-0.148379-3.817955-0.148379-5.727445 0-61.196781 49.785893-110.983697 110.979604-110.983697 22.839171 0 44.679595 6.922666 62.981427 19.558451C397.532969 141.362588 483.541855 86.441744 579.074651 86.441744c131.659599 0 239.596913 103.452163 246.721171 233.308697 34.570353 5.033643 66.437132 21.159926 91.227748 46.465265 29.396517 30.005384 45.584198 69.634963 45.584198 111.590518 0 42.575678-16.787338 82.699514-47.26856 112.981191C885.066741 620.862383 845.221244 637.425617 803.142893 637.425617zM293.687856 246.224868c-39.130206 0-70.964238 31.836079-70.964238 70.968331 0 5.649674 0.679475 11.310603 2.022053 16.826224 1.338485 5.502317 0.282433 11.31265-2.905166 15.992229-3.187599 4.680603-8.207939 7.79043-13.817704 8.558933-58.995649 8.088212-103.484909 59.181891-103.484909 118.849852 0 66.161862 53.890374 119.987768 120.132054 119.987768l578.472947 0c31.44006 0 61.269435-12.43317 83.995019-35.010375 22.862707-22.713304 35.45449-52.756551 35.45449-84.593654 0-31.42164-12.129248-61.10673-34.151821-83.587744-21.979594-22.433942-51.368948-35.254945-82.754772-36.100196-10.998495-0.295735-19.694551-9.41851-19.464307-20.420075 0.013303-0.586354-0.010233-1.154289-0.025583-1.727341-0.021489-0.836041-0.040932-1.676176-0.040932-2.536776 0-114.127294-92.89676-206.978005-207.081359-206.978005-88.465844 0-167.184697 56.186673-195.883319 139.812279-2.360767 6.872524-8.259104 11.926634-15.412015 13.202697-7.157004 1.277086-14.436804-1.428535-19.026332-7.060813C335.200318 255.769244 315.130214 246.224868 293.687856 246.224868z" p-id="2684"></path><path d="M452.299293 938.290943c-56.18565 0-101.894691-45.709041-101.894691-101.894691 0-56.183604 45.709041-101.892645 101.894691-101.892645 56.183604 0 101.892645 45.709041 101.892645 101.892645C554.191938 892.581901 508.482897 938.290943 452.299293 938.290943zM452.299293 774.519995c-34.120099 0-61.879326 27.758204-61.879326 61.877279 0 34.120099 27.758204 61.879326 61.879326 61.879326 34.118052 0 61.877279-27.758204 61.877279-61.879326C514.176572 802.278199 486.418368 774.519995 452.299293 774.519995z" p-id="2685"></path><path d="M648.046512 804.996101c-43.87016 0-79.562057-35.68985-79.562057-79.56001s35.690874-79.562057 79.562057-79.562057c43.87016 0 79.56001 35.690874 79.56001 79.562057S691.916672 804.996101 648.046512 804.996101zM648.046512 685.890422c-21.805632 0-39.546691 17.74106-39.546691 39.546691s17.74106 39.544645 39.546691 39.544645c21.805632 0 39.544645-17.739013 39.544645-39.544645S669.851121 685.890422 648.046512 685.890422z" p-id="2686"></path></svg>