<?xml version="1.0" standalone="no"?><!DOCTYPE svg PUBLIC "-//W3C//DTD SVG 1.1//EN" "http://www.w3.org/Graphics/SVG/1.1/DTD/svg11.dtd"><svg t="1638119263958" class="icon" viewBox="0 0 1024 1024" version="1.1" xmlns="http://www.w3.org/2000/svg" p-id="1086" xmlns:xlink="http://www.w3.org/1999/xlink" width="200" height="200"><defs><style type="text/css"></style></defs><path d="M285.738241 763.077386c-5.854575-3.681856-13.491822-1.940189-17.219879 3.833305l-43.383821 68.463278c-3.70145 5.823636-1.993482 13.59053 3.830392 17.268292 2.073303 1.277086 4.371743 1.942235 6.643576 1.942235 4.142513 0 8.202135-2.098801 10.629517-5.77247l43.38075-68.467371C293.29976 774.522042 291.584629 766.80529 285.738241 763.077386z" p-id="1087"></path><path d="M434.066412 763.077386c-5.823874-3.681856-13.492845-1.940189-17.219879 3.833305l-43.38075 68.463278c-3.727034 5.823636-1.993482 13.59053 3.807878 17.268292 2.092747 1.277086 4.394257 1.942235 6.66609 1.942235 4.16605 0 8.178598-2.098801 10.580396-5.77247l43.379727-68.467371C441.627931 774.522042 439.890286 766.80529 434.066412 763.077386z" p-id="1088"></path><path d="M582.425283 763.077386c-5.854575-3.681856-13.568573-1.940189-17.273093 3.833305l-43.402241 68.463278c-3.682007 5.823636-1.966875 13.59053 3.829369 17.268292 2.119354 1.277086 4.444401 1.942235 6.742841 1.942235 4.089299 0 8.178598-2.098801 10.526159-5.77247l43.433965-68.467371C589.987826 774.522042 588.22255 766.80529 582.425283 763.077386z" p-id="1089"></path><path d="M730.704333 763.077386c-5.774753-3.681856-13.515359-1.994424-17.193272 3.933589l-43.432941 68.364017c-3.682007 5.823636-1.940268 13.59053 3.883606 17.268292 2.042603 1.277086 4.394257 1.942235 6.66609 1.942235 4.115906 0 8.178598-2.098801 10.580396-5.821589l43.403264-68.417229C738.29246 774.522042 736.554815 766.80529 730.704333 763.077386z" p-id="1090"></path><path d="M317.928679 885.701191c-5.877088-3.730974-13.541966-1.992377-17.223972 3.831258l-43.483085 68.465325c-3.677913 5.823636-1.913661 13.542434 3.883606 17.220197 2.095817 1.325182 4.394257 1.939165 6.695767 1.939165 4.139443 0 8.175528-2.042519 10.576303-5.770424l43.407358-68.463278C325.486105 897.096728 323.75153 889.382023 317.928679 885.701191z" p-id="1091"></path><path d="M466.25685 885.701191c-5.823874-3.730974-13.568573-1.992377-17.243416 3.831258l-43.432941 68.465325c-3.651306 5.823636-1.966875 13.542434 3.856999 17.220197 2.09684 1.325182 4.39528 1.939165 6.692697 1.939165 4.139443 0 8.179622-2.042519 10.553789-5.770424l43.406334-68.463278C473.81837 897.096728 472.080725 889.382023 466.25685 885.701191z" p-id="1092"></path><path d="M614.586045 885.701191c-5.872995-3.730974-13.537872-1.992377-17.243416 3.831258l-43.432941 68.465325c-3.70452 5.823636-1.966875 13.542434 3.860069 17.220197 2.092747 1.325182 4.394257 1.939165 6.692697 1.939165 4.139443 0 8.175528-2.042519 10.527182-5.770424l43.456478-68.463278C622.150634 897.096728 620.386382 889.382023 614.586045 885.701191z" p-id="1093"></path><path d="M762.868165 885.701191c-5.774753-3.730974-13.492845-1.992377-17.197365 3.831258l-43.402241 68.465325c-3.731127 5.823636-1.989389 13.542434 3.833462 17.220197 2.092747 1.325182 4.391187 1.939165 6.692697 1.939165 4.139443 0 8.171435-2.042519 10.527182-5.821589l43.425778-68.463278C770.483922 897.096728 768.72274 889.382023 762.868165 885.701191z" p-id="1094"></path><path d="M821.605277 201.655789c-0.69076-0.506537-1.151267-1.272993-1.917754-1.733481-2.453989-1.326205-4.955052-2.351558-7.355826-3.62762-1.128753-0.60989-2.302533-1.177825-3.452777-1.684362-30.094622-15.172561-62.104951-24.63098-94.833671-28.000728C664.612418 92.473111 580.455338 46.842865 491.190728 46.842865c-120.429654 0-224.105053 78.784344-257.038443 193.240119-2.630005 0.865717-5.187352 1.936095-7.763119 2.808976-2.988177 1.02126-6.052081 1.989307-9.017744 3.163039-45.145003 17.683754-82.880965 48.1353-109.650728 86.451978-0.103358 0.152473-0.152479 0.358157-0.255837 0.461511-3.708614 5.263887-7.154227 10.732435-10.423824 16.350386-0.411386 0.613984-0.769558 1.330298-1.177874 1.9934-2.912449 5.213745-5.671395 10.473539-8.251256 15.888875-0.488137 0.972141-0.917943 1.9934-1.352866 2.964518-2.455012 5.313006-4.650094 10.728342-6.745911 16.247033-0.255837 0.663102-0.559771 1.326205-0.842216 2.043542-0.026607 0.152473 0 0.205685-0.026607 0.358157-9.247997 25.702382-14.357574 53.237505-14.357574 81.856309 0 133.145439 108.374613 241.516636 241.557232 241.516636l380.407153 0c150.756576 0 273.46625-122.672924 273.46625-273.507234C959.715317 337.466941 904.30204 248.814856 821.605277 201.655789zM686.249067 662.272515 305.842938 662.272515C200.174057 662.272515 114.205651 576.22372 114.205651 470.669686c0-31.990598 8.098777-62.232366 22.12888-89.00922 0.864729-1.635243 1.706945-3.372817 2.652518-5.008061 4.112836-7.408737 8.865265-14.410198 14.002472-21.151739 1.326259-1.787716 2.606468-3.52529 3.956264-5.259794 5.191445-6.391571 10.885354-12.416797 16.888314-18.137079 1.63531-1.535983 3.296204-3.171226 5.011336-4.652973 6.307918-5.567809 12.974008-10.728342 20.024876-15.480576 1.585166-1.071402 3.171356-2.092661 4.779036-3.167133 7.790749-4.855588 15.966277-9.298783 24.553192-13.0799 0.864729-0.407276 1.684431-0.766456 2.553254-1.124614 9.555001-4.090155 19.518319-7.461949 29.888929-10.016121 0.053214 0 0.079821-0.049119 0.106428-0.049119 23.298567-5.671163 47.824128-7.207146 72.629063-3.579525 13.518429 1.89107 26.344051-7.458879 28.33344-21.148669 1.997576-13.594623-7.459184-26.315342-21.125999-28.259624-16.731742-2.450818-33.44404-2.912329-49.893338-1.787716C324.159846 149.904125 401.979331 96.864118 491.190728 96.864118c62.185796 0 119.255874 26.056446 160.083371 70.864978-13.233938 1.794879-26.413639 4.13825-39.44393 7.766894-70.333693 19.932981-128.689097 66.017576-164.324126 129.73169-6.745911 12.054547-2.453989 27.226085 9.605146 33.972742 3.833462 2.149966 8.048633 3.167133 12.161469 3.167133 8.739393 0 17.269-4.542456 21.843366-12.770861 29.125511-52.113915 76.798184-89.771583 134.306255-106.018615 23.451046-6.696516 47.416835-9.146311 71.100181-8.125051 0.640616 0.053212 1.303746 0.304945 1.966875 0.358157 118.463803 6.440689 211.284548 104.281041 211.284548 222.868927C909.771835 561.92404 809.469392 662.272515 686.249067 662.272515z" p-id="1095"></path></svg>