<?xml version="1.0" standalone="no"?><!DOCTYPE svg PUBLIC "-//W3C//DTD SVG 1.1//EN" "http://www.w3.org/Graphics/SVG/1.1/DTD/svg11.dtd"><svg t="1635699242169" class="icon" viewBox="0 0 1024 1024" version="1.1" xmlns="http://www.w3.org/2000/svg" p-id="9320" xmlns:xlink="http://www.w3.org/1999/xlink" width="200" height="200"><defs><style type="text/css"></style></defs><path d="M511.996 804.211c68.808 0 124.587-55.781 124.587-124.589 0-46.114-25.055-86.374-62.292-107.917v-37.437h41.53c22.935 0 41.53-18.593 41.53-41.53s-18.595-41.53-41.53-41.53h-41.53v-41.53h20.763c22.937 0 41.53-18.593 41.53-41.53s-18.593-41.53-41.53-41.53h-20.763v-41.53h20.763c22.937 0 41.53-18.593 41.53-41.53s-18.593-41.53-41.53-41.53h-20.763v-41.53c0-34.405-27.891-62.294-62.294-62.294-34.405 0-62.294 27.889-62.294 62.294v411.203c-37.239 21.542-62.294 61.802-62.294 107.917-0.002 68.813 55.779 124.593 124.587 124.593z m311.473-145.354c-11.471 0-20.767 9.296-20.767 20.765 0 22.935-18.593 41.53-41.528 41.53-22.937 0-41.53-18.595-41.53-41.53 0-11.468-9.298-20.765-20.767-20.765-11.468 0-20.763 9.296-20.763 20.765 0 45.872 37.186 83.059 83.059 83.059 45.872 0 83.057-37.188 83.057-83.059 0.001-11.468-9.295-20.765-20.761-20.765z m-519.123 83.058c0 11.468 9.296 20.767 20.765 20.767 11.468 0 20.765-9.298 20.765-20.767 0-45.872-37.188-83.057-83.059-83.057-45.872 0-83.059 37.186-83.059 83.057 0 11.468 9.296 20.767 20.765 20.767 11.47 0 20.765-9.298 20.765-20.767 0-22.935 18.593-41.528 41.53-41.528s41.528 18.593 41.528 41.528z m421.337 129.479c-16.066 17.156-42.115 17.156-58.179 0l-29.089 31.066c32.129 34.31 84.224 34.312 116.356-0.002 8.034-8.578 8.034-22.486 0-31.064-8.035-8.58-21.056-8.578-29.088 0z m-349.071 0.002v-0.002l-0.002 0.002c-16.066 17.158-42.113 17.158-58.179 0-8.034-8.578-21.055-8.578-29.089 0-8.032 8.578-8.034 22.486 0 31.064 32.131 34.314 84.226 34.314 116.358 0v-0.002c16.066-17.154 42.113-17.154 58.179 0.002l15.023-16.043 14.065-15.022c-32.132-34.313-84.226-34.311-116.355 0.001z m174.534-0.002c-16.066 17.156-42.113 17.156-58.179 0l-0.001 0.001 0.001 0.001-14.066 15.021-15.021 16.043c32.129 34.31 84.224 34.312 116.356-0.002v0.002c16.066-17.158 42.113-17.16 58.179-0.002l29.089-31.064c-32.132-34.314-84.226-34.314-116.358 0z" fill="#5E9DF3" p-id="9321"></path><path d="M511.996 98.228c34.403 0 62.294 27.889 62.294 62.294s-27.891 62.294-62.294 62.294c-34.405 0-62.294-27.889-62.294-62.294s27.889-62.294 62.294-62.294z" fill="#3080EE" p-id="9322"></path></svg>