<?xml version="1.0" standalone="no"?><!DOCTYPE svg PUBLIC "-//W3C//DTD SVG 1.1//EN" "http://www.w3.org/Graphics/SVG/1.1/DTD/svg11.dtd"><svg t="1635699350395" class="icon" viewBox="0 0 1024 1024" version="1.1" xmlns="http://www.w3.org/2000/svg" p-id="15999" xmlns:xlink="http://www.w3.org/1999/xlink" width="200" height="200"><defs><style type="text/css"></style></defs><path d="M613.14042 610.221648V118.112778c0-56.482882-45.952284-102.438363-102.435166-102.438363-56.489276 0-102.444757 45.955481-102.444756 102.438363v492.10887c-67.051844 37.087272-109.637788 108.461328-109.637789 185.685717 0 116.939515 95.139833 212.076151 212.082545 212.076151 116.936318 0 212.072954-95.136636 212.072955-212.076151 0-77.230783-42.582748-148.601642-109.637789-185.685717zM510.705254 963.226874c-92.262621 0-167.325903-75.060086-167.325903-167.319509 0-64.75327 37.963223-124.298786 96.719104-151.699441a22.378321 22.378321 0 0 0 12.918685-20.281153v-214.250045h57.68172a22.378321 22.378321 0 1 0 0-44.756642h-57.68172v-31.96903h57.68172a22.378321 22.378321 0 1 0 0-44.756642h-57.68172v-31.96903h57.68172a22.378321 22.378321 0 1 0 0-44.756642h-57.68172v-31.96903h57.68172a22.378321 22.378321 0 1 0 0-44.756642h-57.68172v-16.633487c0-31.805988 25.87893-57.681721 57.688114-57.68172 31.802791 0 57.678524 25.875733 57.678524 57.68172v505.813993a22.371927 22.371927 0 0 0 12.921882 20.281153c58.752683 27.394262 96.715906 86.939777 96.715907 151.699441 0 92.262621-75.060086 167.322706-167.316313 167.322706z" fill="#1296db" p-id="16000"></path><path d="M622.884581 777.151135a22.378321 22.378321 0 0 0-22.378321 22.378321c0 49.520027-40.287372 89.807399-89.8074 89.807399s-89.807399-40.287372-89.807399-89.807399c0-34.756729 20.380257-66.719366 51.917705-81.428316a22.378321 22.378321 0 0 0-18.912878-40.565503c-47.237439 22.029859-77.761469 69.913072-77.761469 121.990622 0 74.196922 60.363922 134.564041 134.564041 134.564041s134.564041-60.363922 134.564042-134.564041a22.378321 22.378321 0 0 0-22.378321-22.375124z" fill="#1296db" p-id="16001"></path></svg>