<?xml version="1.0" standalone="no"?><!DOCTYPE svg PUBLIC "-//W3C//DTD SVG 1.1//EN" "http://www.w3.org/Graphics/SVG/1.1/DTD/svg11.dtd"><svg t="1635699226704" class="icon" viewBox="0 0 1024 1024" version="1.1" xmlns="http://www.w3.org/2000/svg" p-id="8420" xmlns:xlink="http://www.w3.org/1999/xlink" width="200" height="200"><defs><style type="text/css"></style></defs><path d="M434.467671 88.900749 239.151263 88.900749c-26.939559 0-48.845475 21.911032-48.845475 48.852638 0 20.455891 12.652158 38.039361 30.55183 45.284369 7.15291 2.892887 13.516852 9.553587 13.516852 17.276479l0 637.263935c0 53.771671 43.768853 97.520057 97.550757 97.520057l9.787924 0c53.79316 0 97.55178-43.769876 97.55178-97.520057L439.26493 200.327538c0-7.719822 6.370081-14.385639 13.529131-17.273409 17.878183-7.261381 30.555923-24.828478 30.555923-45.289486C483.323379 110.831224 461.40723 88.900749 434.467671 88.900749zM434.467671 148.365072l-19.031449 0c-7.726985 0-14.052041 4.202719-14.148231 9.382695l-0.192382 9.374508-0.031722 214.670198c0 7.720845-6.240121 13.963013-13.96506 13.963013l-100.543927 0c-7.725962 0-13.966083-6.242168-13.966083-13.963013L272.588817 162.325016c0-7.716752-6.246261-13.960966-13.966083-13.960966l-19.479657 0c-5.877871 0-10.644431-4.749164-10.644431-10.613732 0-5.862521 4.76656-10.639315 10.644431-10.639315l195.315384 0c5.876847 0 10.642384 4.776793 10.642384 10.639315C445.112102 143.615908 440.356798 148.365072 434.467671 148.365072z" fill="#1296db" p-id="8421"></path><path d="M538.458093 732.745567l-0.427742 0.73678 0.213871 0.053212c-2.52245 9.568936-3.996011 19.508309-3.996011 29.755698 0 74.810846 67.084884 135.421272 149.725046 135.421272 82.739423 0 149.71993-60.609403 149.71993-135.421272 0-15.611559-3.478218-30.386054-8.827039-44.370557l0.406253-0.157589-1.046842-1.786693c-4.830005-11.984962-11.354606-23.124673-19.545148-33.278941L683.973258 478.146984 571.679729 674.607448C555.801087 691.062212 544.142559 710.720947 538.458093 732.745567z" fill="#1296db" p-id="8422"></path></svg>