<?xml version="1.0" standalone="no"?><!DOCTYPE svg PUBLIC "-//W3C//DTD SVG 1.1//EN" "http://www.w3.org/Graphics/SVG/1.1/DTD/svg11.dtd"><svg t="1638119281633" class="icon" viewBox="0 0 1024 1024" version="1.1" xmlns="http://www.w3.org/2000/svg" p-id="1363" xmlns:xlink="http://www.w3.org/1999/xlink" width="200" height="200"><defs><style type="text/css"></style></defs><path d="M821.605277 213.443253c-0.716344-0.514723-1.151267-1.281179-1.966875-1.737574-2.401798-1.384533-4.931515-2.351558-7.355826-3.628644-1.101123-0.563842-2.30151-1.172709-3.452777-1.737574-30.092575-15.072277-62.076297-24.626887-94.7999-27.897374C664.589904 104.256482 580.415427 58.733683 491.179471 58.733683c-120.457285 0-224.154174 78.629825-257.006719 193.178721-3.094605 0.921999-5.979423 2.149966-8.994207 3.167133-2.50311 0.87288-5.111624 1.691525-7.614733 2.660596-45.269851 17.72878-83.077448 48.183396-109.851305 86.652546-0.102335 0.106424-0.179086 0.151449-0.2016 0.309038-3.734197 5.259794-7.207441 10.777461-10.477038 16.451694-0.407293 0.60989-0.765464 1.222851-1.147173 1.989307-2.942126 5.110391-5.724609 10.426467-8.27684 15.891945-0.435946 0.917906-0.92306 1.940189-1.407104 2.858094-2.400775 5.366218-4.649071 10.781554-6.691673 16.250102-0.255837 0.766456-0.561818 1.38044-0.847332 2.092661-0.049121 0.103354 0 0.156566-0.049121 0.35918-9.223437 25.599028-14.329944 53.187363-14.329944 81.796958 0 133.199675 108.344936 241.567801 241.574629 241.567801l170.601343 0-81.491258 110.410646c-3.269597 4.393054-3.269597 10.423397-0.053214 14.766308 3.192846 4.445242 8.841728 6.282077 14.051593 4.546549L542.223052 809.230542 441.564483 945.392688c-4.139443 5.52176-2.988177 13.334703 2.579861 17.423835 2.221689 1.635243 4.882394 2.450818 7.408017 2.450818 3.858022 0 7.614733-1.786693 10.065652-5.056156l124.185342-167.887708c3.220477-4.3951 3.269597-10.321066 0.053214-14.766308-3.170332-4.451382-8.890849-6.288217-14.05057-4.497431l-133.358635 44.400233 69.028925-93.500511 178.70012 0c150.810814 0 273.539931-122.728182 273.539931-273.498024C959.716341 349.296361 904.277479 260.601296 821.605277 213.443253zM686.17641 674.040537 305.858288 674.040537c-105.666834 0-191.605563-85.984327-191.605563-191.649901 0-31.9292 8.023049-62.178131 22.025522-88.946798 0.914873-1.691525 1.733552-3.37691 2.652518-5.01113 4.165027-7.355525 8.918479-14.459317 14.003496-21.200858 1.325236-1.787716 2.652518-3.52529 4.008455-5.160533 5.183258-6.436596 10.857724-12.470009 16.888314-18.189268 1.63531-1.586125 3.269597-3.118014 5.007242-4.649903 6.307918-5.567809 12.978101-10.777461 20.051483-15.480576 1.558559-1.12052 3.143725-2.095731 4.779036-3.167133 7.790749-4.904707 15.991861-9.353019 24.526585-13.133112 0.868823-0.358157 1.687501-0.716314 2.556324-1.071402 9.551931-4.085038 19.467151-7.457856 29.838785-10.015098 0.049121 0 0.102335-0.049119 0.178063-0.049119 23.249446-5.675256 47.850735-7.203052 72.581989-3.628644 13.438608 1.89107 26.365541-7.408737 28.332416-21.101597 1.966875-13.643742-7.435647-26.213012-21.128045-28.304649-16.762442-2.405793-33.41641-2.808976-49.843194-1.787716 33.439947-79.757508 111.257385-132.891659 200.469805-132.891659 62.179656 0 119.252804 26.106588 160.047554 70.913073-13.205284 1.687432-26.389078 4.089132-39.438813 7.770987-70.309133 19.874653-128.65942 65.961294-164.293425 129.773645-6.745911 11.95631-2.453989 27.127847 9.604122 33.979906 3.834485 2.091638 8.07217 3.113921 12.211613 3.113921 8.712786 0 17.218856-4.600785 21.766615-12.774955 29.151095-52.116985 76.845258-89.769536 134.326722-105.966427 23.450022-6.742565 47.361575-9.245572 71.021383-8.121981 0.71225 0.049119 1.326259 0.304945 2.017019 0.304945 118.513947 6.489808 211.328552 104.331183 211.328552 222.86688C909.769789 573.695131 809.446878 674.040537 686.17641 674.040537z" p-id="1364"></path></svg>