<?xml version="1.0" standalone="no"?><!DOCTYPE svg PUBLIC "-//W3C//DTD SVG 1.1//EN" "http://www.w3.org/Graphics/SVG/1.1/DTD/svg11.dtd"><svg t="1638287677057" class="icon" viewBox="0 0 1024 1024" version="1.1" xmlns="http://www.w3.org/2000/svg" p-id="2953" xmlns:xlink="http://www.w3.org/1999/xlink" width="200" height="200"><defs><style type="text/css"></style></defs><path d="M937.63091 516.463662c-11.048637 0-20.007683-8.958022-20.007683-20.007683 0-31.29168-12.079106-60.85295-34.010605-83.240843-21.887496-22.341844-51.152007-35.109636-82.407871-35.94977-10.998495-0.296759-19.694551-9.419534-19.464307-20.421098 0.013303-0.582261-0.010233-1.147126-0.025583-1.715061-0.021489-0.833995-0.040932-1.672082-0.040932-2.53166 0-113.682155-92.533486-206.16857-206.27397-206.16857-88.11792 0-166.530804 55.966663-195.119933 139.26481-2.358721 6.872524-8.257058 11.927657-15.412015 13.202697-7.145747 1.27504-14.434757-1.428535-19.025309-7.061836-13.489222-16.564257-33.468253-26.063609-54.812373-26.063609-38.950104 0-70.63985 31.69077-70.63985 70.644967 0 5.622044 0.678452 11.259438 2.012843 16.752546 1.338485 5.501294 0.281409 11.311627-2.905166 15.991206-3.188622 4.678556-8.207939 7.788383-13.817704 8.556886-58.751079 8.05342-103.053074 58.935274-103.053074 118.354572 0 11.048637-8.958022 20.007683-20.008706 20.007683s-20.007683-8.958022-20.007683-20.007683c0-72.519664 49.461505-135.51644 117.909433-154.002466-0.096191-1.883907-0.144286-3.768837-0.144286-5.653767 0-61.018725 49.63956-110.660332 110.655216-110.660332 22.745027 0 44.4954 6.884804 62.72867 19.454074C394.501936 161.119561 480.208946 106.413612 575.398936 106.413612c131.204228 0 238.775198 103.089913 245.912759 232.486982 34.43937 5.028527 66.185398 21.098527 90.885963 46.311769 29.302373 29.912263 45.440935 69.419046 45.440935 111.243617C957.638593 507.505639 948.680571 516.463662 937.63091 516.463662z" p-id="2954"></path><path d="M935.87901 600.288812 81.552387 600.288812c-11.04966 0-20.007683-9.417487-20.007683-20.466124s8.958022-20.466124 20.007683-20.466124L935.87901 559.356564c11.048637 0 20.007683 9.417487 20.007683 20.466124S946.927647 600.288812 935.87901 600.288812z" p-id="2955"></path><path d="M723.797777 724.108862 81.552387 724.108862c-11.04966 0-20.007683-8.905834-20.007683-19.954471s8.958022-19.954471 20.007683-19.954471l642.24539 0c11.048637 0 20.007683 8.905834 20.007683 19.954471S734.847437 724.108862 723.797777 724.108862z" p-id="2956"></path><path d="M493.710448 852.022137 81.552387 852.022137c-11.04966 0-20.007683-8.905834-20.007683-19.954471s8.958022-19.954471 20.007683-19.954471l412.157038 0c11.048637 0 20.007683 8.905834 20.007683 19.954471S504.759085 852.022137 493.710448 852.022137z" p-id="2957"></path></svg>