<?xml version="1.0" standalone="no"?><!DOCTYPE svg PUBLIC "-//W3C//DTD SVG 1.1//EN" "http://www.w3.org/Graphics/SVG/1.1/DTD/svg11.dtd"><svg t="1638287697332" class="icon" viewBox="0 0 1024 1024" version="1.1" xmlns="http://www.w3.org/2000/svg" p-id="3089" xmlns:xlink="http://www.w3.org/1999/xlink" width="200" height="200"><defs><style type="text/css"></style></defs><path d="M939.940512 225.758744 83.559091 225.758744c-11.050684 0-20.008706-8.903787-20.008706-19.954471s8.958022-19.954471 20.008706-19.954471l856.382445 0c11.04966 0 20.008706 8.903787 20.008706 19.954471S950.990173 225.758744 939.940512 225.758744z" p-id="3090"></path><path d="M939.940512 841.789075 83.559091 841.789075c-11.050684 0-20.008706-8.904811-20.008706-19.954471 0-11.04966 8.958022-19.954471 20.008706-19.954471l856.382445 0c11.04966 0 20.008706 8.904811 20.008706 19.954471C959.949218 832.885288 950.990173 841.789075 939.940512 841.789075z" p-id="3091"></path><path d="M287.649326 391.534348 153.590074 391.534348c-11.050684 0-20.008706-8.903787-20.008706-19.954471s8.958022-19.954471 20.008706-19.954471l134.060275 0c11.04966 0 20.008706 8.903787 20.008706 19.954471S298.700009 391.534348 287.649326 391.534348z" p-id="3092"></path><path d="M583.78186 391.534348 449.721585 391.534348c-11.04966 0-20.008706-8.903787-20.008706-19.954471s8.959046-19.954471 20.008706-19.954471l134.060275 0c11.04966 0 20.008706 8.903787 20.008706 19.954471S594.83152 391.534348 583.78186 391.534348z" p-id="3093"></path><path d="M881.914958 391.534348 747.854683 391.534348c-11.04966 0-20.008706-8.903787-20.008706-19.954471s8.959046-19.954471 20.008706-19.954471l134.060275 0c11.04966 0 20.008706 8.903787 20.008706 19.954471S892.964618 391.534348 881.914958 391.534348z" p-id="3094"></path><path d="M287.649326 692.38637 153.590074 692.38637c-11.050684 0-20.008706-9.416464-20.008706-20.466124 0-11.04966 8.958022-20.466124 20.008706-20.466124l134.060275 0c11.04966 0 20.008706 9.416464 20.008706 20.466124C307.659055 682.97093 298.700009 692.38637 287.649326 692.38637z" p-id="3095"></path><path d="M583.78186 692.38637 449.721585 692.38637c-11.04966 0-20.008706-9.416464-20.008706-20.466124 0-11.04966 8.959046-20.466124 20.008706-20.466124l134.060275 0c11.04966 0 20.008706 9.416464 20.008706 20.466124C603.790566 682.97093 594.83152 692.38637 583.78186 692.38637z" p-id="3096"></path><path d="M881.914958 692.38637 747.854683 692.38637c-11.04966 0-20.008706-9.416464-20.008706-20.466124 0-11.04966 8.959046-20.466124 20.008706-20.466124l134.060275 0c11.04966 0 20.008706 9.416464 20.008706 20.466124C901.923664 682.97093 892.964618 692.38637 881.914958 692.38637z" p-id="3097"></path><path d="M421.709601 535.820522 285.648762 535.820522c-11.04966 0-20.008706-8.904811-20.008706-19.954471s8.959046-19.954471 20.008706-19.954471l136.060839 0c11.04966 0 20.008706 8.904811 20.008706 19.954471S432.759261 535.820522 421.709601 535.820522z" p-id="3098"></path><path d="M751.856833 535.820522 617.796558 535.820522c-11.04966 0-20.008706-8.904811-20.008706-19.954471s8.959046-19.954471 20.008706-19.954471l134.060275 0c11.04966 0 20.008706 8.904811 20.008706 19.954471S762.906493 535.820522 751.856833 535.820522z" p-id="3099"></path></svg>