<?xml version="1.0" standalone="no"?><!DOCTYPE svg PUBLIC "-//W3C//DTD SVG 1.1//EN" "http://www.w3.org/Graphics/SVG/1.1/DTD/svg11.dtd"><svg t="1638287671903" class="icon" viewBox="0 0 1024 1024" version="1.1" xmlns="http://www.w3.org/2000/svg" p-id="2818" xmlns:xlink="http://www.w3.org/1999/xlink" width="200" height="200"><defs><style type="text/css"></style></defs><path d="M716.361411 556.985564 286.6076 556.985564c-11.04966 0-20.007683-8.958022-20.007683-20.007683 0-11.048637 8.958022-20.007683 20.007683-20.007683l429.753811 0c111.138216 0 201.555505-90.417289 201.555505-201.554482S827.499627 113.861234 716.361411 113.861234c-11.048637 0-20.007683-8.958022-20.007683-20.007683s8.958022-20.007683 20.007683-20.007683c133.202745 0 241.570871 108.367103 241.570871 241.569848S849.564156 556.985564 716.361411 556.985564z" p-id="2819"></path><path d="M562.713009 954.602444c-11.04966 0-20.007683-8.958022-20.007683-20.007683s8.956999-20.007683 20.007683-20.007683c67.156516 0 121.79288-54.636365 121.79288-121.79288S629.869524 671.001317 562.713009 671.001317l-456.067107 0c-11.04966 0-20.007683-8.958022-20.007683-20.007683s8.958022-20.007683 20.007683-20.007683l456.067107 0c89.222067 0 161.808246 72.586179 161.808246 161.808246S651.934053 954.602444 562.713009 954.602444z" p-id="2820"></path><path d="M621.7588 427.350065 105.561198 427.350065c-11.04966 0-20.007683-8.905834-20.007683-19.954471 0-11.04966 8.958022-19.954471 20.007683-19.954471l516.197602 0c11.048637 0 20.007683 8.904811 20.007683 19.954471C641.766482 418.445254 632.80846 427.350065 621.7588 427.350065z" p-id="2821"></path></svg>